<?xml version="1.0" encoding="UTF-8" standalone="no"?>
<!-- Uploaded to: SVG Repo, www.svgrepo.com, Generator: SVG Repo Mixer Tools -->

<svg
   fill="#000000"
   width="800"
   height="800"
   viewBox="0 0 16 16"
   id="request-new-16px"
   version="1.1"
   sodipodi:docname="friends-request.svg"
   xmlns:inkscape="http://www.inkscape.org/namespaces/inkscape"
   xmlns:sodipodi="http://sodipodi.sourceforge.net/DTD/sodipodi-0.dtd"
   xmlns="http://www.w3.org/2000/svg"
   xmlns:svg="http://www.w3.org/2000/svg">
  <defs
     id="defs6" />
  <sodipodi:namedview
     id="namedview4"
     pagecolor="#ffffff"
     bordercolor="#000000"
     borderopacity="0.25"
     inkscape:showpageshadow="2"
     inkscape:pageopacity="0.0"
     inkscape:pagecheckerboard="0"
     inkscape:deskcolor="#d1d1d1"
     showgrid="false" />
  <path
     id="Path_46"
     data-name="Path 46"
     d="M 5,11 A 2,2 0 0 0 7,9 2,2 0 0 0 5,7 2,2 0 0 0 3,9 2,2 0 0 0 5,11 Z M 5,8 A 1,1 0 0 1 6,9 1,1 0 0 1 5,10 1,1 0 0 1 4,9 1,1 0 0 1 5,8 Z m 2.5,4 h -5 A 2.5,2.5 0 0 0 0,14.5 1.5,1.5 0 0 0 1.5,16 h 7 A 1.5,1.5 0 0 0 10,14.5 2.5,2.5 0 0 0 7.5,12 Z m 1,3 h -7 A 0.5,0.5 0 0 1 1,14.5 1.5,1.5 0 0 1 2.5,13 h 5 A 1.5,1.5 0 0 1 9,14.5 0.5,0.5 0 0 1 8.5,15 Z M 16,2.5 v 5 A 2.5,2.5 0 0 1 13.5,10 H 10.707 L 8.854,11.854 A 0.5,0.5 0 0 1 8.5,12 0.489,0.489 0 0 1 8.309,11.962 0.5,0.5 0 0 1 8,11.5 v -2 A 0.5,0.5 0 0 1 8.5,9 0.5,0.5 0 0 1 9,9.5 v 0.793 L 10.146,9.146 A 0.5,0.5 0 0 1 10.5,9 h 3 A 1.5,1.5 0 0 0 15,7.5 v -5 A 1.5,1.5 0 0 0 13.5,1 h -7 A 1.5,1.5 0 0 0 5,2.5 v 3 A 0.5,0.5 0 0 1 4.5,6 0.5,0.5 0 0 1 4,5.5 v -3 A 2.5,2.5 0 0 1 6.5,0 h 7 A 2.5,2.5 0 0 1 16,2.5 Z M 10.5,2 V 4.5 H 13 A 0.5,0.5 0 0 1 13.5,5 0.5,0.5 0 0 1 13,5.5 H 10.5 V 8 A 0.5,0.5 0 0 1 10,8.5 0.5,0.5 0 0 1 9.5,8 V 5.5 H 7 A 0.5,0.5 0 0 1 6.5,5 0.5,0.5 0 0 1 7,4.5 H 9.5 V 2 A 0.5,0.5 0 0 1 10,1.5 0.5,0.5 0 0 1 10.5,2 Z" />
  <path
     style="fill:#000000;stroke-width:0.0204604"
     d="m 1.4015345,14.978311 c -0.1951614,-0.04751 -0.3500746,-0.212397 -0.3860078,-0.410855 -0.0193444,-0.106838 0.022244,-0.390332 0.081868,-0.558067 0.1536263,-0.432182 0.511322,-0.777702 0.9656916,-0.93282 l 0.1568624,-0.05355 h 2.7826088 2.7826086 l 0.1792576,0.06414 c 0.5940646,0.212554 0.9786508,0.710368 1.0118402,1.309741 0.010295,0.185914 0.00679,0.217353 -0.033451,0.300489 -0.024722,0.05107 -0.08069,0.125142 -0.124375,0.164609 -0.1600574,0.144602 0.095872,0.135679 -3.824709,0.133353 -1.9419476,-0.0012 -3.5584349,-0.0088 -3.5921944,-0.01704 z"
     id="path181" />
  <path
     style="fill:#000000;stroke-width:0.0204604"
     d="m 1.3185553,14.928685 c -0.056892,-0.02664 -0.1359761,-0.08645 -0.175743,-0.132907 -0.123417,-0.144185 -0.14549902,-0.288494 -0.087462,-0.571577 0.1066852,-0.52037 0.4417736,-0.905387 0.9768651,-1.122419 l 0.167273,-0.06785 2.792839,-4.06e-4 2.7928388,-4.06e-4 0.1908286,0.07387 c 0.6061036,0.234621 0.985642,0.757445 0.985642,1.357745 0,0.159729 -0.00567,0.185678 -0.058498,0.267827 -0.070237,0.109216 -0.1351566,0.171014 -0.2177166,0.207247 -0.049849,0.02188 -0.7379208,0.02791 -3.662404,0.03212 l -3.6010231,0.0052 z"
     id="path183" />
  <path
     style="fill:#000000;stroke-width:0.02"
     id="path234"
     d="m 2.3764006,12.957434 c -0.309813,0.08952 -0.6226409,0.168166 -0.9349971,0.248212 -0.2550244,0.06533 -0.51125446,0.125777 -0.7686157,0.181148 -0.0716422,0.01542 -0.143282,0.03243 -0.21646872,0.03852 -0.0103676,7.16e-4 -0.0187678,0.0027 -0.0253886,-0.0058 0.0854293,0.05141 0.16876888,0.106473 0.25628782,0.154244 0.004062,0.0022 0.007228,-0.0058 0.0111543,-0.0083 0.007739,-0.0048 0.0158556,-0.009 0.0237833,-0.01353 0.2068964,-0.101326 0.4315874,-0.159694 0.6528373,-0.220353 0.2018859,-0.05166 0.4043903,-0.102754 0.6104456,-0.134973 0.060044,-0.0069 0.1194228,-0.0176 0.1790016,-0.02742 0.064988,-0.0082 0.1302154,-0.01414 0.1952726,-0.02181 0.077018,-0.009 0.1544876,-0.01272 0.2319628,-0.01462 0.044556,-8.86e-4 0.089124,-7.42e-4 0.1336838,-3.36e-4 0.019857,-6.82e-4 0.040047,0.0027 0.059575,-0.0015 0.027947,-0.0044 0.056404,-0.0044 0.084628,-0.005 0.040897,-6.84e-4 0.081799,-6.56e-4 0.1226988,-3.28e-4 0.01955,8.06e-4 0.037448,0.002 0.055701,-0.0054 0.03011,-0.01254 0.061177,-0.02243 0.09236,-0.03189 0.045445,-0.01299 0.090854,-0.02609 0.1353876,-0.04196 0.011448,-0.0076 0.032823,-0.0085 0.041634,-0.02062 0.061181,-0.0843 -0.1643674,-0.129517 -0.255647,-0.17969 -0.0086,-0.0047 -0.019609,9.74e-4 -0.029414,0.0015 -0.1022486,-4.42e-4 -0.2044978,-7.3e-4 -0.3067466,-0.0012 -0.057531,-3.78e-4 -0.1150662,-3.82e-4 -0.172593,-0.0012 -0.00276,-1e-4 -0.010562,-0.0018 -0.00827,-2.76e-4 0.087519,0.05827 0.1737312,0.118867 0.2649428,0.171166 0.00789,0.0045 0.017999,-0.0026 0.02701,-0.0038 0.011733,-0.0016 0.023453,-0.0033 0.03522,-0.0045 0.039901,-0.0044 0.057231,-0.005 0.098807,-0.0078 0.1441604,-0.0086 0.2885216,-0.0083 0.4327426,-0.0021 0.123871,0.0068 0.2471656,0.02097 0.3707626,0.03132 0.1092134,0.0092 0.2182248,0.02062 0.3272208,0.03206 0.1020282,0.009 0.2035846,0.02217 0.3049376,0.03678 0.094918,0.01411 0.1903722,0.02436 0.285709,0.03519 0.1130506,0.01218 0.226779,0.01539 0.3403762,0.01776 0.08319,0.0015 0.1663944,0.002 0.2495958,0.0023 0.1794072,-9.86e-4 0.1384974,0.03148 -0.1640402,-0.1759 -0.3349184,0.0079 -0.669588,0.02374 -1.0042692,0.03817 -0.4356352,0.02138 -0.8714054,0.03913 -1.3072656,0.05506 -0.1106534,4.18e-4 -0.2215936,0.0128 -0.3322898,0.0088 -0.014971,-0.0031 -0.010644,0.0012 -0.015897,-0.0092 0.08556,0.05451 0.1682692,0.113766 0.2566794,0.163514 0.00595,0.0033 0.012297,-0.006 0.018589,-0.0086 0.034036,-0.01438 0.034673,-0.01345 0.073685,-0.02581 0.1449798,-0.03858 0.2933782,-0.06289 0.4413594,-0.08674 0.1408682,-0.02102 0.2821472,-0.03946 0.42365,-0.05567 0.07554,-0.0086 0.1514708,-0.01255 0.2274554,-0.01368 0.030976,-3.54e-4 0.06195,1.6e-4 0.092921,6.08e-4 0.0089,0.0021 0.00573,-3.1e-4 0.010327,0.0059 -0.084545,-0.05111 -0.1683262,-0.103512 -0.2536352,-0.15334 -0.00131,-7.64e-4 -7.82e-4,0.003 -0.00161,0.0043 -0.00109,0.0017 -0.00772,0.0081 -0.00887,0.0092 -0.00673,0.0065 -0.010987,0.01503 -0.012311,0.02443 -6.26e-4,0.0044 -2.14e-4,0.01685 0.00519,0.02008 0.087872,0.05252 0.177404,0.102203 0.266106,0.153305 0.019693,0.0044 0.039055,0.0098 0.058521,0.01509 9.94e-4,8.6e-4 0.00405,0.0033 0.00298,0.0026 C 3.973801,13.064495 3.8901192,13.001074 3.8030736,12.9425 3.8004936,12.9408 3.6982932,12.9202 3.6901136,12.91821 3.5773614,12.88888 3.4619642,12.87827 3.346106,12.87103 c -0.1838348,-0.01009 -0.3680304,-0.005 -0.5520012,-0.0026 -0.1212718,0.0017 -0.2425518,0.0027 -0.3638358,0.0024 -0.044915,-1.6e-4 -0.089828,-5.26e-4 -0.1347398,-0.0011 -0.018963,-0.0025 -0.032337,0.0013 -0.048437,0.01079 -0.013206,0.01006 -0.028349,0.0166 -0.042856,0.02431 -0.015278,0.0041 -0.025021,0.01185 -0.03325,0.02527 -0.017366,0.03283 0.00947,0.05299 0.033695,0.07127 0.1629286,0.117356 0.312894,0.182104 0.4970282,0.23133 0.067321,0.01744 0.1359988,0.02867 0.2053042,0.03386 0.133245,0.0047 0.2083752,0.09926 -0.191152,-0.152253 -0.099262,0.01619 -0.1971368,0.03809 -0.294621,0.0627 -0.2838146,0.08012 -0.5605643,0.182782 -0.8370933,0.284681 -0.1693528,0.06074 -0.3350788,0.130782 -0.5020972,0.197496 -0.053497,0.02001 -0.10532738,0.04544 -0.16085094,0.05961 -0.005493,0.01511 -0.019331,-0.01188 -0.0140597,-0.0088 0.41117584,0.240123 0.20210784,0.23716 0.25961214,0.138808 0.031618,-0.04334 0.071087,-0.08009 0.110253,-0.116438 0.062257,-0.05648 0.1282247,-0.108687 0.1949299,-0.159768 0.054482,-0.04279 0.1125835,-0.08058 0.1692077,-0.120396 0.03216,-0.02314 0.065975,-0.0438 0.09979,-0.06439 0.027917,-0.01595 0.055299,-0.03296 0.084694,-0.04608 0.00435,-0.0016 0.00862,-0.0035 0.013059,-0.0049 0.00384,-0.0012 0.013103,-0.0049 0.017196,8e-5 0.00181,0.0022 0.00471,0.0097 0.00221,0.0083 -0.2487393,-0.139294 -0.2977513,-0.234356 -0.2481065,-0.141063 -0.00297,0.07339 -0.045021,0.140356 -0.08014,0.202491 -0.071796,0.11889 -0.1606154,0.226031 -0.2482536,0.333335 -0.049782,0.06021 -0.1000641,0.120132 -0.1556629,0.175091 -0.1117687,0.108286 -0.087509,0.02209 0.2131261,0.189585 0.041325,-0.0616 0.08242,-0.123444 0.1229542,-0.185606 0.034884,-0.06273 0.086891,-0.122094 0.099065,-0.194727 -0.02919,-0.286191 -0.2708008,-0.196203 -0.386383,-0.125166 -0.1087875,0.07573 -0.18565478,0.18412 -0.25535112,0.294738 -0.0572816,0.09452 -0.0989751,0.196823 -0.1350962,0.30091 -0.0142487,0.04362 -0.0296862,0.08758 -0.0344729,0.13347 -0.0100925,0.507766 0.30835132,0.125817 0.35811422,0.06365 0.060178,-0.07855 0.121113,-0.156517 0.1817773,-0.234692 0.017293,-0.02255 0.034151,-0.0454 0.050705,-0.0685 0.00456,-0.0064 0.015373,-0.02535 0.015619,-0.01753 -0.087934,-0.04516 -0.1722661,-0.09816 -0.2638031,-0.135487 -0.00804,-0.0033 -0.0045,0.01677 -0.00689,0.02511 -0.0031,0.01084 -0.00632,0.02165 -0.00958,0.03246 -0.013463,0.04472 -0.027184,0.08935 -0.040589,0.134082 -0.025926,0.08389 -0.0492738,0.16853 -0.0732774,0.252977 -0.0132576,0.04288 -0.0245474,0.08625 -0.0315044,0.130601 -0.0187947,0.137513 0.1037108,0.108524 0.2702776,0.200995 0.032486,-0.01627 0.057705,-0.04264 0.084843,-0.06609 0.07903,-0.06511 0.3143483,0.111842 -0.2518742,-0.151004 -0.00609,-0.0028 -0.00703,0.01144 -0.010764,0.01701 -0.010848,0.01623 -0.022622,0.03211 -0.0340734,0.0479 -0.0374407,0.04855 -0.0746589,0.09727 -0.11125394,0.146458 -0.0168606,0.02479 -0.0381171,0.04653 -0.0538375,0.07211 0.0887294,0.04888 0.17492838,0.102668 0.26618814,0.146644 0.00517,0.0025 0.0076,-0.0086 0.011435,-0.01286 0.028969,-0.03229 0.058708,-0.06387 0.087962,-0.0959 0.048003,-0.05414 0.09665,-0.107726 0.1433246,-0.163028 0.024294,-0.02875 0.047836,-0.05754 0.047345,-0.09652 -0.2334886,-0.136975 -0.2255801,-0.21036 -0.39560574,-0.09979 -0.061293,0.04234 -0.0986338,0.100888 -0.11386032,0.172952 -0.007446,0.09098 0.0475805,0.15586 0.10970074,0.214531 0.16834752,0.130316 0.35906712,0.229464 0.54842262,0.326031 0.1335981,0.06752 0.2729606,0.122428 0.4137341,0.172871 0.1038425,0.0366 0.2109863,0.062 0.3178057,0.08802 0.014324,10e-4 0.121548,0.02894 0.1282726,0.02123 0.00673,-0.0077 0.00903,-0.01837 0.01354,-0.02756 -0.00333,-0.0064 -0.00385,-0.01543 -0.00999,-0.01926 C 2.225241,15.301664 2.0482022,15.207274 1.8766932,15.11012 1.7097276,15.01339 1.5330494,14.935685 1.3535382,14.865687 c -0.1057095,-0.04185 -0.214623,-0.07447 -0.3227765,-0.109172 -0.0350504,-0.01274 -0.0723738,-0.02324 -0.1035826,-0.04435 0.2477669,0.187721 0.1819484,0.147676 0.3622804,0.185477 0.049484,0.01113 0.097723,0.02691 0.1467085,0.03995 0.020812,0.0067 0.044527,0.0075 0.064242,0.01729 0.081812,0.05611 0.2052893,0.118541 -0.2324246,-0.133136 0.020774,0.01395 0.040956,0.02845 0.060064,0.04463 0.023106,0.02055 0.049199,0.03707 0.075237,0.05354 0.01418,0.0081 0.026517,0.01927 0.040185,0.028 -0.045164,0.0054 -0.090174,0.0046 -0.1355278,0.0017 -0.06955,-0.0041 -0.1369253,-0.02121 -0.2039782,-0.03881 -0.033138,-0.0086 -0.066836,-0.0152 -0.1010113,-0.01756 -0.0241419,-0.0042 -0.0454659,0.01028 -0.0365875,0.03913 0.0378177,0.02706 0.0780981,0.05099 0.1179069,0.07511 0.1388404,0.08114 0.276834,0.166867 0.4244574,0.232019 0.022818,0.0074 0.053343,0.02791 0.075905,0.01218 0.00658,-0.01183 0.013567,-0.01916 0.010838,-0.03373 -0.0045,-0.02404 -0.05131,-0.06319 -0.067451,-0.07975 -0.052861,-0.05511 -0.1089217,-0.106987 -0.1642664,-0.15956 -0.027357,-0.0259 -0.054164,-0.05236 -0.080951,-0.07885 -0.012088,-0.01856 -0.0247,0.0048 -0.00537,0.0065 0.026136,10e-4 0.052091,0.0045 0.077803,0.0093 0.1225572,0.01978 0.1375969,0.07619 -0.2164089,-0.162207 -0.00804,0.0089 -0.014128,0.02059 -0.013147,0.03309 5.42e-4,0.0069 0.0065,0.01551 0.012202,0.01891 0.089648,0.05349 0.1804455,0.105033 0.2706682,0.157549 0.1001342,0.04769 0.2100765,0.06919 0.3176713,0.09285 0.2768016,0.05823 0.5560084,0.103718 0.8355666,0.146328 0.1723354,0.0263 0.3452662,0.04918 0.5191936,0.06162 0.020931,-0.0038 0.1135026,0.01274 0.1305616,0.003 -0.084628,-0.05921 -0.1677986,-0.120566 -0.2538846,-0.177639 -0.00573,-0.0038 -0.013504,-0.0026 -0.020205,-0.0041 -0.01117,-0.0025 -0.022297,-0.0053 -0.033395,-0.0081 -0.05803,-0.0148 -0.1150598,-0.03284 -0.172311,-0.05035 C 2.5476268,14.964442 2.358717,14.921151 2.1671276,14.89 1.9874421,14.864089 1.8059749,14.855077 1.6246952,14.8498 c -0.078454,-0.002 -0.1569364,-0.0023 -0.235412,-0.0025 -0.1302221,8.64e-4 -0.1078354,-0.0313 0.2211801,0.176617 0.00623,0.0039 0.014741,-4.42e-4 0.022114,-4.08e-4 0.010846,6e-5 0.021688,4.42e-4 0.032532,6.64e-4 0.1457466,0.007 0.2915923,0.01067 0.4374752,0.01331 0.1653056,0.0027 0.3306298,0.0039 0.4959516,0.005 0.088505,6.36e-4 0.1770118,0.0011 0.2655184,0.0015 0.044182,2.14e-4 0.088365,3.62e-4 0.1325468,6.58e-4 0.01856,2.38e-4 0.037123,1.8e-4 0.055682,4.7e-4 0.017536,3.76e-4 0.034991,-3.44e-4 0.05245,-0.002 0.1007144,-0.01066 0.2011954,-0.02332 0.3018162,-0.0348 0.171484,-0.01859 0.3433792,-0.03301 0.5151192,-0.04897 0.1130864,-0.01133 0.2260108,-0.02395 0.3395008,-0.03051 0.050525,-0.0026 0.1011248,-0.0033 0.1517082,-0.0028 0.013781,0.0038 0.00825,5.06e-4 0.017306,0.0086 -0.084155,-0.04981 -0.1683012,-0.09962 -0.2524634,-0.149419 -0.0024,-0.0014 -0.0039,0.0041 -0.0063,0.0055 -0.00708,0.0042 -0.014417,0.0079 -0.021625,0.01184 -0.1567082,0.0586 -0.3256806,0.07767 -0.4910928,0.09565 -0.1350222,0.01326 -0.2706708,0.01762 -0.4062708,0.01832 -0.044594,-0.0066 -0.1012874,0.0099 -0.1441454,-0.0061 0.086534,0.05436 0.1708688,0.112391 0.2596014,0.163083 0.00633,0.0036 0.014493,-0.0017 0.021757,-0.0023 0.01269,-0.0012 0.025383,-0.0023 0.038102,-0.0031 0.07752,-0.0048 0.155346,-0.0055 0.2329638,-0.0075 0.235559,-0.0056 0.4709896,-0.01499 0.7062802,-0.0274 0.150955,-0.0073 0.3013816,-0.02214 0.4521422,-0.03229 0.060375,-0.004 0.120868,-0.0056 0.1813642,-0.0055 0.00388,3.2e-4 0.020214,5.68e-4 0.024928,0.0043 0.00189,0.0015 0.00462,0.008 0.00258,0.0067 -0.085283,-0.05363 -0.1670708,-0.112817 -0.2535128,-0.164564 -0.00392,-0.0023 -0.00838,0.0037 -0.012675,0.0052 -0.00813,0.0029 -0.016394,0.0055 -0.024591,0.0083 -0.136015,0.03773 -0.2773978,0.05026 -0.41735,0.06444 -0.159278,0.01495 -0.3192028,0.02066 -0.4791008,0.023 -0.048962,1.4e-4 -0.097956,9.68e-4 -0.146913,-2.9e-4 -0.01488,-3.82e-4 -0.014912,0.0034 -0.011442,-0.0048 0.085541,0.06019 0.1677018,0.125497 0.256624,0.180569 0.00949,0.0059 0.022326,-7.58e-4 0.033493,-8.9e-4 0.019487,-2.3e-4 0.038976,-3.78e-4 0.058463,-2e-4 0.1172768,0.0011 0.2343488,0.0068 0.3514838,0.0122 0.2911412,0.01533 0.5818508,0.03752 0.8728176,0.05565 0.16489,0.0089 0.329841,0.01653 0.4945022,0.02909 0.051091,0.0039 0.102399,0.0078 0.1526684,0.01804 0.016647,0.0035 0.031937,0.01031 0.048957,0.01239 0.013384,9.02e-4 0.026819,-2e-5 0.040219,-2.62e-4 0.048445,5.02e-4 0.096614,-0.0017 0.144857,-0.006 0.090022,-0.01004 0.1796134,-0.02315 0.2698716,-0.03116 0.040342,-0.005 0.081326,-0.002 0.1215508,-0.0077 C 6.636152,15.08202 6.2698396,15.012306 6.1627306,14.983375 5.9756594,14.932507 5.7881602,14.883324 5.599942,14.836878 c -0.1481532,-0.03615 -0.297708,-0.06628 -0.4491368,-0.08456 -0.063725,-0.0072 -0.1278182,-0.0096 -0.191901,-0.01018 -0.1651802,-0.01837 0.1190388,0.174499 0.235194,0.177903 0.1011656,0.0051 0.2020134,0.01496 0.302739,0.02543 0.092617,0.0099 0.1850796,0.0223 0.2758408,0.04353 0.097883,0.03481 0.2519718,0.132901 -0.1962536,-0.117696 -0.00338,-0.0019 0.00676,0.0041 0.00918,0.0071 0.00599,0.0075 -5.54e-4,0.01178 -0.00465,0.01835 -0.067201,0.05776 -0.1578264,0.07757 -0.2417686,0.098 -0.1063504,0.02465 -0.2151658,0.03457 -0.3239714,0.03966 -0.053467,0.0021 -0.1069826,0.002 -0.1604702,0.001 -0.110927,-0.003 -0.1791762,-0.08602 0.234749,0.172438 7.8e-4,4.88e-4 0.043404,-0.0084 0.047773,-0.0093 0.10298,-0.01986 0.2040134,-0.04797 0.3049752,-0.07604 0.097471,-0.02812 0.1952616,-0.05511 0.2928524,-0.08281 0.184792,-0.05548 0.1112286,-0.02241 -0.1681922,-0.206735 -0.070234,6e-5 -0.140466,5e-4 -0.2106994,6.9e-4 -0.058686,1.8e-4 -0.1173716,2e-5 -0.1760568,-2.36e-4 -0.023811,-8e-5 -0.04762,-4.64e-4 -0.07143,-5.26e-4 -0.016478,-0.0017 -0.031545,0.0052 -0.047324,0.0088 -0.030352,0.003 -0.060669,0.0065 -0.091093,0.0089 -0.034576,0.005 -0.069376,0.0079 -0.1042634,0.0094 -0.010229,-0.0011 -0.021881,0.003 -0.031894,-7.46e-4 -0.0018,-6.78e-4 -0.0062,-0.0045 -0.00455,-0.0035 0.2584642,0.15136 0.2064962,0.236095 0.2603424,0.140521 0.062107,-0.07392 0.1271008,-0.14541 0.1900138,-0.218687 0.1205342,-0.141421 0.2437814,-0.280519 0.3709144,-0.416039 0.089484,-0.09372 0.182793,-0.183647 0.2738776,-0.275786 0.040742,-0.03943 0.076683,-0.08015 0.085583,-0.137335 -1.4e-4,-0.07179 -0.053263,-0.120388 -0.1028112,-0.165111 -0.088454,-0.07195 -0.185654,-0.132033 -0.2827184,-0.191464 -0.075971,-0.04708 -0.1541354,-0.09048 -0.2305136,-0.136871 -0.032103,-0.02148 -0.07261,-0.04069 -0.082905,-0.08079 0.00849,-0.05846 0.071156,-0.09455 0.1153886,-0.125513 0.08683,-0.05633 0.1769754,-0.10737 0.2666532,-0.158987 0.043485,-0.0274 0.1073908,-0.04674 0.1181108,-0.103016 -0.031306,-0.133323 -0.2323502,-0.177926 -0.360712,-0.190384 -0.044225,-0.0035 -0.088621,-0.0036 -0.1329554,-0.0037 -0.040541,2e-5 -0.081081,2.12e-4 -0.1216218,2.08e-4 -0.029994,-5e-6 -0.059988,-10e-5 -0.089982,-3.14e-4 -0.018543,-0.0019 -0.032722,0.0023 -0.045095,0.01638 -0.00631,0.0048 -0.0037,0.01695 -0.010839,0.01893 -0.021221,0.01239 -0.044381,0.02052 -0.067555,0.02837 -0.044826,0.01668 -0.090275,0.03163 -0.135577,0.04696 -0.032009,0.01221 -0.067233,0.02139 -0.093986,0.04379 -0.069071,0.159301 0.2777528,0.184003 0.3951972,0.19688 0.207737,0.02281 0.4159886,0.04021 0.6241422,0.05863 0.1478392,0.01553 0.2962662,0.02562 0.4438788,0.04329 0.025595,0.0049 0.053456,0.0063 0.077371,0.01797 0.0041,0.002 0.015209,0.01006 0.011251,0.0078 -0.2533874,-0.145257 -0.3236344,-0.08197 -0.2457478,-0.149187 -0.026072,0.0179 -0.056869,0.02728 -0.087059,0.03561 0,0 0.2465666,0.168307 0.2465666,0.168307 v 0 c 0.040568,-0.01328 0.085982,-0.02681 0.1084002,-0.06612 C 6.3660676,13.127329 6.0926518,13.083606 5.978863,13.069289 5.8340086,13.056259 5.6888256,13.047109 5.5440328,13.033319 5.3335316,13.014939 5.123,12.996039 4.9134426,12.968629 c -0.024005,-0.0033 -0.077561,-0.01027 -0.1045706,-0.01518 -0.00922,-0.0017 -0.035403,-0.01106 -0.027452,-0.0061 0.2675068,0.167071 0.3082128,0.07303 0.2264608,0.160186 0.026271,-0.01743 0.057428,-0.02579 0.086613,-0.03683 0.045443,-0.01552 0.090905,-0.03099 0.1362462,-0.0468 0.026169,-0.0094 0.053076,-0.01896 0.075254,-0.03624 0.00261,-0.0027 0.018584,-0.02219 0.011616,-0.01973 0.010325,0.0018 0.021333,0.0014 0.031925,0.0013 0.02965,-2.36e-4 0.0593,-3.76e-4 0.088951,-4.94e-4 0.040437,-1.6e-4 0.080876,-2.94e-4 0.1213132,-1.8e-4 0.043566,3.48e-4 0.087255,8.28e-4 0.1305438,0.0063 0.022096,0.0034 0.044439,0.0065 0.065377,0.0148 0.00577,0.0023 0.022023,0.01149 0.016712,0.0083 C 5.5304502,12.8509 5.4362902,12.850537 5.5419786,12.853074 c 0.013258,0.0047 -0.00475,0.01687 -0.010261,0.02129 -0.026531,0.02127 -0.057125,0.03685 -0.08581,0.05481 -0.089594,0.05331 -0.180848,0.103938 -0.268253,0.160822 -0.055522,0.03892 -0.1180166,0.08061 -0.1346262,0.150637 -5.34e-4,0.05615 0.029177,0.07811 0.074007,0.106973 0.076785,0.04833 0.1570906,0.09076 0.234225,0.138534 0.096474,0.05836 0.1928546,0.117332 0.2823524,0.18616 0.04543,0.03705 0.098115,0.07738 0.1113786,0.137667 -0.00102,0.05091 -0.040546,0.0861 -0.072513,0.12189 -0.08835,0.09435 -0.1801534,0.185365 -0.2686402,0.279589 -0.1259144,0.137075 -0.248598,0.277051 -0.3723584,0.416065 -0.066351,0.07358 -0.1358746,0.144243 -0.2011842,0.218655 -0.072172,0.120707 0.167733,0.205907 0.2795906,0.188837 0.034828,-0.0027 0.069475,-0.0069 0.1042212,-0.01041 0.031599,-0.003 0.06352,-0.0048 0.094599,-0.0115 0.014604,-0.0034 0.02871,-0.004 0.043629,-0.0032 0.023296,-6e-5 0.046589,-4.9e-4 0.069885,-6.78e-4 0.05792,-5.34e-4 0.1158392,-0.0012 0.1737612,-0.0015 0.070183,-3.14e-4 0.1409274,-0.0027 0.210735,0.0054 C 5.545012,14.822781 5.6590256,14.819464 5.490251,14.87228 5.393974,14.90121 5.2975062,14.92954 5.200756,14.95685 5.0992294,14.98456 4.99728,15.01122 4.8932296,15.02783 c -0.00981,0.0015 -0.019604,0.0031 -0.029418,0.0046 -0.00689,10e-4 -0.026023,-0.0016 -0.0207,0.0029 0.2772202,0.234281 0.136308,0.178078 0.2541652,0.176516 0.052765,-5.24e-4 0.1055414,-0.0016 0.1582158,-0.0049 0.1092236,-0.0076 0.2182658,-0.02015 0.3249398,-0.04566 0.091119,-0.02316 0.1901066,-0.04588 0.2592382,-0.113914 0.00469,-0.0075 0.010579,-0.01444 0.014072,-0.0226 0.00224,-0.0052 0.011285,-0.03551 9.16e-4,-0.04224 -0.121651,-0.07895 -0.1967932,-0.144443 -0.3187228,-0.173258 -0.09073,-0.0178 -0.182511,-0.02914 -0.2744716,-0.03846 -0.1026652,-0.01045 -0.2053968,-0.02064 -0.308388,-0.02731 -0.1601444,-0.0081 0.1456796,0.19588 0.2479234,0.174811 0.062036,1.8e-4 0.124067,0.0029 0.1857436,0.0099 0.1485906,0.01792 0.2954046,0.04731 0.4407992,0.0827 0.1903042,0.047 0.3798106,0.09709 0.5681066,0.151623 0.018367,0.0052 0.036727,0.01049 0.055102,0.01569 0.012827,0.0036 0.025715,0.0071 0.038506,0.01081 0.1508886,0.04431 -0.3137576,-0.06828 -0.2069044,-0.163469 -0.039212,0.0037 -0.078675,0.0046 -0.1177736,0.0097 -0.089587,0.0099 -0.178707,0.0241 -0.2686218,0.03087 -0.049198,0.0022 -0.098383,0.0025 -0.14762,0.0013 -0.012552,-3.84e-4 -0.025132,-7.8e-4 -0.037174,-0.0048 -0.015957,-0.0047 -0.031818,-0.0094 -0.048513,-0.01086 -0.049793,-0.0069 -0.1001092,-0.0095 -0.150252,-0.0124 -0.1617278,-0.0088 -0.3236528,-0.01319 -0.4853744,-0.02217 -0.290246,-0.01681 -0.5803858,-0.03529 -0.8705348,-0.05369 -0.1050372,-0.0061 -0.1653768,-0.0098 -0.2681464,-0.01477 -0.072247,-0.0035 -0.090822,-0.0041 -0.156165,-0.0058 -0.01196,-3.06e-4 -0.044556,-0.009 -0.035885,-7.54e-4 0.069753,0.06631 0.1501226,0.120473 0.225184,0.18071 7.22e-4,-0.0014 6.8e-4,-0.0037 0.00217,-0.0042 0.010971,-0.0036 0.02309,-7.88e-4 0.03464,-10e-4 0.040091,-8.32e-4 0.080186,-0.0016 0.1202658,-0.0029 0.1588572,-0.0053 0.3176792,-0.01309 0.4759632,-0.02797 0.1440436,-0.01428 0.2898724,-0.02603 0.4298556,-0.0648 0.00952,-0.0038 0.019408,-0.0067 0.028559,-0.01134 0.00658,-0.0033 0.023919,-0.0074 0.018375,-0.01225 -0.223076,-0.194964 -0.1453042,-0.181273 -0.2732056,-0.178561 -0.059688,0.0016 -0.119345,0.0042 -0.178824,0.0097 -0.1479752,0.01316 -0.2957146,0.02933 -0.4441188,0.03721 -0.235515,0.01341 -0.471245,0.02351 -0.7071676,0.02544 -0.010787,10e-5 -0.1611242,0.0014 -0.181004,0.0019 -0.025335,6.16e-4 -0.075187,0.0018 -0.1028246,0.0076 -0.00984,0.0021 -0.03592,0.0029 -0.02855,0.0098 0.071931,0.06678 0.1553284,0.120041 0.2329926,0.180061 0.047697,-1.4e-4 0.095395,-3.8e-4 0.1430798,-0.0016 0.1341366,-0.0036 0.268243,-0.01038 0.4016778,-0.0251 0.1703918,-0.02019 0.3447956,-0.04017 0.5064798,-0.09995 0.00908,-0.0056 0.018826,-0.01023 0.027252,-0.01676 0.1048822,-0.08138 -0.1462592,-0.208379 -0.256992,-0.198157 -0.049944,10e-4 -0.099884,0.0028 -0.1497046,0.0066 -0.1119968,0.0089 -0.2234202,0.02317 -0.3351734,0.03458 -0.1717248,0.01699 -0.3436256,0.03211 -0.515336,0.04925 -0.1026724,0.01049 -0.2053338,0.02208 -0.3084038,0.0279 -0.017718,2e-5 -0.035429,-3.4e-4 -0.053145,-2.94e-4 -0.018129,2.86e-4 -0.036263,2.28e-4 -0.054392,4.78e-4 -0.043529,3.18e-4 -0.087059,5.02e-4 -0.1305876,7.82e-4 -0.087065,5.56e-4 -0.1741298,0.0012 -0.2611958,0.0015 -0.1640816,4.62e-4 -0.3281776,2.96e-4 -0.492234,-0.003 -0.1484066,-0.0036 -0.2966905,-0.0093 -0.4448425,-0.01887 -0.011423,-3.58e-4 -0.022846,-7.54e-4 -0.03427,-0.0011 -0.00772,-2.18e-4 -0.029052,-0.0055 -0.023168,-5.38e-4 0.2089853,0.177738 0.1394162,0.178859 0.2636196,0.175609 0.076404,-0.0014 0.1528284,-0.0019 0.2292412,-7.9e-4 0.1788795,0.0036 0.3579831,0.01228 0.5350139,0.03979 0.1924732,0.03328 0.3817294,0.07984 0.5667298,0.14304 0.070588,0.0219 0.1413394,0.04589 0.2140158,0.06014 0.1289686,0.02529 -0.088672,-0.07999 -0.21189,-0.172144 -0.033341,-0.0041 -0.082975,7.8e-4 -0.1207468,-0.004 -0.1695636,-0.01014 -0.3382988,-0.0303 -0.5063224,-0.05505 -0.281434,-0.04181 -0.5622325,-0.08897 -0.8397393,-0.152268 -0.1097414,-0.0267 -0.2228464,-0.05109 -0.3221562,-0.107186 0.080706,0.0471 0.1614124,0.0942 0.2421186,0.141305 -0.010701,-0.0044 -0.020674,-0.0072 -0.026376,0.0021 -0.2259937,-0.168303 -0.1475388,-0.164532 -0.2760987,-0.182478 -0.027548,-0.0036 -0.055802,-0.0066 -0.083452,-0.0028 -0.022269,0.0064 -0.0422425,0.02876 -0.025894,0.05086 0.024661,0.03016 0.055881,0.05444 0.083064,0.08221 0.055493,0.0523 0.1121687,0.103449 0.1649783,0.158508 0.00895,0.0092 0.056622,0.06425 0.068281,0.06765 0.0069,0.002 0.011657,-0.0077 0.014156,-0.01104 -0.00433,-0.01076 -0.05174,-0.01753 -0.061371,-0.02688 -0.1077395,-0.05011 -0.3573679,-0.189589 0.087132,0.06069 -0.038891,-0.02293 -0.076671,-0.04792 -0.1156942,-0.07039 -0.027004,0.007 -0.031251,0.03495 -0.00169,0.02832 0.032431,0.0043 0.064412,0.01124 0.096082,0.01943 0.067863,0.01659 0.1365175,0.03029 0.2065276,0.03332 0.051967,0.0018 0.1221625,0.01108 0.1600337,-0.032 0.012562,-0.0297 0.00169,-0.04698 -0.024288,-0.06398 -0.025209,-0.01744 -0.052559,-0.03157 -0.076698,-0.05057 -0.019252,-0.01577 -0.036719,-0.03374 -0.058221,-0.04657 -0.074244,-0.04322 -0.1843524,-0.130749 -0.285817,-0.161722 -0.02139,-0.0035 -0.04228,-0.01038 -0.063453,-0.01501 -0.048757,-0.01329 -0.09718,-0.0281 -0.1469204,-0.03742 -0.032638,-0.0058 -0.0723461,-0.01675 -0.10547734,-0.0079 -0.006939,0.0019 -0.0249771,0.0042 -0.019605,0.0089 0.074047,0.06571 0.15648424,0.121306 0.23472644,0.181959 0.034023,0.01442 0.068718,0.02709 0.1042231,0.03741 0.1059673,0.03229 0.211884,0.06501 0.3149984,0.105739 0.1790482,0.07074 0.3546895,0.150129 0.5208446,0.247904 0.1466244,0.08398 0.00722,0.004 0.1421798,0.08183 0.018423,0.01063 0.036868,0.02122 0.055325,0.03178 0.013977,0.008 0.055886,0.03206 0.041976,0.02393 -0.076071,-0.04442 -0.1541404,-0.08554 -0.2284622,-0.132822 -0.00482,-0.0031 0.011363,-0.0011 0.017045,-0.0017 0.00521,-0.0066 0.012695,-0.01188 0.015636,-0.01974 2e-4,-5.1e-4 -0.00594,-0.001 -0.025962,-0.0047 C 2.0875872,15.26488 2.0560072,15.25854 2.0245962,15.2515 1.9195234,15.22679 1.8146051,15.20074 1.712929,15.16406 1.5723828,15.11272 1.43344,15.056554 1.3005442,14.987443 c -0.089418,-0.04672 -0.31162112,-0.17477 0.086315,0.05523 0.016201,0.0094 -0.032488,-0.01859 -0.048406,-0.02843 -0.015059,-0.0093 -0.02992,-0.01894 -0.044503,-0.02898 -0.013777,-0.0095 -0.027032,-0.0197 -0.040548,-0.02955 -0.058529,-0.04956 -0.1187082,-0.103837 -0.120518,-0.186165 0.00993,-0.06537 0.045604,-0.115574 0.1013733,-0.15144 0.025231,-0.01464 0.049418,-0.02772 0.078164,-0.0342 0.00723,-0.0016 0.014585,-0.0031 0.021994,-0.0033 0.00527,-1.2e-4 0.020057,0.0053 0.015625,0.0024 -0.080427,-0.05181 -0.1631284,-0.1 -0.2446926,-0.149999 0.030292,-6e-5 -0.024254,0.05927 -0.028239,0.06672 -0.045354,0.05558 -0.092968,0.109264 -0.14106472,0.162478 -0.0243142,0.0258 -0.048879,0.05131 -0.0737407,0.07658 -0.005635,0.0057 -0.0112654,0.01146 -0.0169676,0.01712 -0.003889,0.0039 -0.0162606,0.0083 -0.0118047,0.01144 0.0809927,0.05796 0.16802242,0.106982 0.25203362,0.160473 0.00875,-0.02641 0.037128,-0.04472 0.048723,-0.06973 0.035849,-0.04965 0.072665,-0.0986 0.1104255,-0.146814 0.00389,-0.0052 0.050131,-0.06639 0.049218,-0.06711 -0.2435388,-0.193509 -0.1779996,-0.235925 -0.2633832,-0.156654 -0.019021,0.01754 -0.0433183,0.04758 -0.0712408,0.04477 0.0830715,0.04914 0.1665787,0.09755 0.2492145,0.147417 0.0029,0.0018 -0.00754,-4.36e-4 -0.0097,-0.003 -0.0058,-0.007 -0.0031,-0.01814 -0.00283,-0.02609 0.00455,-0.04365 0.014496,-0.08633 0.026899,-0.128401 0.02249,-0.08478 0.044209,-0.16981 0.070685,-0.253468 0.013723,-0.04439 0.027851,-0.08856 0.042686,-0.132593 0.00362,-0.01075 0.00727,-0.02148 0.010834,-0.03225 0.00273,-0.0082 0.014876,-0.01937 0.00808,-0.02478 -0.079746,-0.06339 -0.1691121,-0.113626 -0.2536682,-0.170439 -0.023224,0.03158 -0.041731,0.06662 -0.066489,0.09718 -0.0585716,0.07926 -0.11837324,0.157691 -0.18123634,0.233611 -0.0143743,0.01696 -0.0311126,0.03766 -0.0472613,0.05341 -0.005602,0.0055 -0.0113947,0.01082 -0.0178341,0.01527 -0.003891,0.0027 -0.016806,0.0033 -0.0128804,0.0059 0.22107966,0.148454 0.34363644,0.165507 0.24187254,0.150732 -0.0056,-0.04293 0.017311,-0.08628 0.026193,-0.127155 0.032702,-0.102993 0.071318,-0.204229 0.1273466,-0.297151 0.067396,-0.107053 0.1425363,-0.211911 0.2516449,-0.280178 0.026413,-0.01401 0.058706,-0.03528 0.090533,-0.03392 0.00524,2.24e-4 0.01926,0.0081 0.014834,0.0053 -0.2014543,-0.128396 -0.327342,-0.196231 -0.2332642,-0.145366 0.00429,0.0591 -0.061505,0.13403 -0.086796,0.18413 -0.042199,0.06392 -0.086136,0.126448 -0.1321325,0.187638 0.2617987,0.165605 0.1938446,0.227418 0.3046815,0.112552 0.053898,-0.05742 0.1032128,-0.118862 0.1522361,-0.180449 0.086892,-0.109769 0.1758137,-0.218454 0.2506092,-0.337069 0.04017,-0.06726 0.082672,-0.136289 0.095358,-0.214953 0.012616,-0.12874 -0.1982283,-0.224412 -0.30353,-0.161714 -0.029425,0.01516 -0.058373,0.03134 -0.086565,0.04869 -0.033703,0.02134 -0.067141,0.04311 -0.099138,0.06698 -0.056377,0.04033 -0.1136552,0.07947 -0.1680033,0.122559 -0.067098,0.05206 -0.1337572,0.104833 -0.1970349,0.161522 -0.0416235,0.03808 -0.0837272,0.07648 -0.11762524,0.121841 -0.006611,0.01069 -0.0164371,0.02563 -0.0143016,0.02725 0.27095834,0.204923 0.15702884,0.201882 0.27655554,0.162591 0.053483,-0.01917 0.104738,-0.04393 0.1572503,-0.06551 0.16246,-0.07057 0.3245547,-0.142147 0.4906641,-0.203892 0.2757959,-0.104809 0.5530739,-0.208554 0.8402989,-0.278056 0.094115,-0.02019 0.084876,-0.01942 0.1702348,-0.03382 0.040134,-0.0068 0.087624,-0.0085 0.1258828,-0.02454 0.00704,-0.003 0.012995,-0.008 0.019492,-0.01204 -0.2059282,-0.150728 -0.1606054,-0.174475 -0.306401,-0.181233 -0.067185,-0.0062 -0.1337164,-0.01791 -0.1988234,-0.03582 -0.045843,-0.01287 -0.091311,-0.02601 -0.1357918,-0.04314 -0.100332,-0.03864 -0.2723038,-0.139284 0.1509122,0.09936 -0.015836,-0.0078 -0.038087,-0.0217 -0.051252,-0.0275 0.00687,-0.0053 0.017211,-0.0061 0.024317,-0.01166 0.014319,-0.0071 0.027343,-0.01653 0.041973,-0.02299 0.013065,-0.0034 0.027157,0.0013 0.040615,-7.52e-4 0.043713,-5.18e-4 0.087426,-0.0011 0.131136,-0.0018 0.1196232,-0.0019 0.2392492,-0.0037 0.3588574,-0.0064 0.1834912,-0.0037 0.3673402,-0.0086 0.5505826,0.0047 0.1168628,0.0099 0.2330802,0.02478 0.3466484,0.05513 0.032055,0.0076 0.064051,0.01568 0.096772,0.02 0.00727,9.58e-4 0.027362,0.007 0.021884,0.0021 -0.2040008,-0.18124 -0.1276226,-0.178765 -0.227272,-0.18085 -0.018584,-0.0049 -0.037624,-0.0102 -0.054263,-0.01992 0.595944,0.34588 0.3094318,0.09377 0.2292028,0.151945 -2.34e-4,1.8e-4 10e-5,-5.7e-4 1.6e-4,-8.56e-4 0.0013,-0.0015 0.0026,-0.003 0.0039,-0.0045 0.090001,-0.105968 -0.1229936,-0.212559 -0.246914,-0.199137 -0.030553,8e-5 -0.061108,4.52e-4 -0.091642,0.0016 -0.075259,0.0032 -0.150395,0.009 -0.2251106,0.01874 -0.1404986,0.01823 -0.2809322,0.03715 -0.4209186,0.05901 -0.1502396,0.02464 -0.3010472,0.04868 -0.4485318,0.08695 -0.030074,0.0095 -0.051673,0.01499 -0.079526,0.02823 -0.00807,0.0038 -0.029811,0.0073 -0.023256,0.01335 0.2880216,0.266916 0.134527,0.183445 0.2558664,0.180391 0.1066464,-0.0047 0.2130808,-0.0135 0.319649,-0.01956 0.428599,-0.02639 0.8573724,-0.05059 1.2863546,-0.06978 0.3460044,-0.01204 0.6923076,-0.02374 1.0385128,-0.01198 C 5.1152616,12.963982 5.2146392,12.976014 5.0412034,12.978164 4.9591354,12.97865 4.8770592,12.978908 4.794998,12.97748 4.6817908,12.97498 4.568487,12.97088 4.455972,12.95729 4.3605,12.94601 4.2649734,12.93498 4.1698668,12.92089 4.0687308,12.90692 3.9673074,12.89546 3.8656536,12.88593 3.7565448,12.8743 3.647372,12.86313 3.5379938,12.85431 3.4148922,12.84379 3.2919382,12.83071 3.1684464,12.82558 c -0.1455462,-0.0048 -0.2911868,-0.0043 -0.4366632,0.003 -0.048329,0.003 -0.056436,0.0029 -0.1021662,0.0075 -0.01218,0.0012 -0.024335,0.0027 -0.036485,0.0042 -0.00944,0.0011 -0.035241,-0.0027 -0.028278,0.0037 0.069724,0.06482 0.1480346,0.119767 0.2235202,0.177772 0.00196,0.0015 0.00494,-2.12e-4 0.00741,-3.18e-4 0.056139,-0.0011 0.1122916,-0.0013 0.168438,-0.0017 0.1026448,-3.98e-4 0.2054308,-0.0014 0.3079464,0.0045 0.1259254,0.02399 0.00509,0.0046 -0.2162868,-0.151648 -0.00343,-0.0024 0.00689,-0.0055 0.00825,-0.0095 7.54e-4,-0.0022 -0.00404,0.0024 -0.00615,0.0034 -0.011803,0.0056 -0.01724,0.0074 -0.030039,0.01232 -0.044364,0.01525 -0.089481,0.02805 -0.134549,0.04103 -0.03118,0.0095 -0.061845,0.02077 -0.093262,0.02936 -0.01677,7.64e-4 -0.033732,-0.0011 -0.050558,10e-5 -0.040808,4.26e-4 -0.081621,5.66e-4 -0.1224242,0.0013 -0.029223,7e-4 -0.058362,0.002 -0.087389,0.0056 -0.019008,-9.54e-4 -0.038054,-8e-5 -0.057077,-1.6e-4 -0.044049,3.9e-4 -0.088098,0.001 -0.1321196,0.0027 -0.077599,0.0032 -0.155118,0.0083 -0.2322884,0.01725 -0.066184,0.007 -0.1326661,0.01169 -0.1984899,0.02171 -0.058275,0.01054 -0.1167669,0.01967 -0.1750198,0.03033 -0.201393,0.0397 -0.399379,0.09458 -0.5977096,0.147059 -0.22714108,0.06272 -0.4595586,0.117207 -0.67479044,0.21495 -0.009426,0.0058 -0.0194448,0.01074 -0.0282785,0.0174 -0.006445,0.0049 -0.0233771,0.0117 -0.0172732,0.01698 0.21798364,0.18879 0.14984624,0.19093 0.27418116,0.174144 0.0711227,-0.01103 0.1408273,-0.0292 0.21062304,-0.04649 0.25193804,-0.06173 0.50308584,-0.126578 0.75406414,-0.19209 0.3172051,-0.08206 0.6347407,-0.163312 0.9546825,-0.234114 0,0 -0.2438542,-0.168488 -0.2438542,-0.168488 z" />
  <path
     style="fill:#000000;stroke-width:0.02"
     id="path238"
     d="m 6.310591,15.172016 c 0.083158,-0.0062 0.1665042,-0.01028 0.2498126,-0.01411 0.05942,-0.0041 0.1188496,-0.008 0.178385,-0.0099 0.034921,-0.0015 0.069671,-0.0052 0.1046412,-0.0065 0.05226,-0.0015 0.1045476,-0.0017 0.1568256,-0.0018 0.049992,-2e-5 0.099983,2.58e-4 0.149974,5.38e-4 0.025049,8e-5 0.050097,3.52e-4 0.075145,5.26e-4 0.012298,8e-5 0.024597,10e-5 0.036895,1.2e-4 0.033471,-0.0176 0.06984,-0.02902 0.105868,-0.04053 0.066913,-0.02041 0.135242,-0.03563 0.2035442,-0.05053 0.059833,-0.01301 0.120909,-0.01722 0.1819398,-0.0193 0.045962,-0.0012 0.091941,-8.26e-4 0.1379104,-4.6e-4 0.03315,3.68e-4 0.066302,3.08e-4 0.099454,2.74e-4 0.052663,-5.16e-4 0.1053302,-4.42e-4 0.1579954,-4.44e-4 0.055339,-3e-6 0.1106786,6e-5 0.166018,4e-6 0.055472,-8e-6 0.1109434,-4e-5 0.1664152,6e-5 0.0426,4e-5 0.085199,2.68e-4 0.127799,4.36e-4 0.022894,6e-5 0.045788,2.72e-4 0.068682,4.12e-4 0.013123,1.4e-4 0.026244,8e-5 0.039367,-2e-5 0.022559,-1.8e-4 0.045119,-2.08e-4 0.067679,-1.2e-4 0.015792,8e-5 0.031584,1.8e-4 0.047376,2.14e-4 0.010571,2e-5 0.021142,8e-5 0.031713,6e-5 0.017667,-0.0075 0.035533,-0.01394 0.054258,-0.01825 0.017863,-0.0048 0.034861,-0.0088 0.050469,-0.01909 0.011457,-0.0085 0.018011,-0.02037 0.021725,-0.03385 5.82e-4,-0.01121 0.00368,-0.02035 0.00837,-0.03064 0.018761,-0.03543 0.037989,-0.07063 0.058803,-0.104905 0.014501,-0.0215 0.029338,-0.04251 0.041168,-0.06562 0.00616,-0.01221 0.010162,-0.02527 0.012515,-0.0387 0.00137,-0.0086 0.00142,-0.01729 0.00117,-0.02596 -0.00167,-0.04957 -0.00201,-0.09918 -0.00228,-0.148774 -1.4e-4,-0.06409 2.28e-4,-0.128172 7.52e-4,-0.192256 -6.86e-4,-0.03441 -0.00145,-0.06896 -0.0054,-0.103178 -0.00205,-0.01482 -0.00441,-0.02958 -0.00564,-0.0445 -6.84e-4,-0.0103 -6.82e-4,-0.02061 -1.2e-4,-0.03091 -0.00598,-0.01509 -0.020273,-0.02785 -0.029539,-0.04253 -0.027037,-0.05091 -0.04961,-0.104079 -0.073583,-0.15648 -0.021115,-0.04692 -0.040711,-0.09456 -0.064216,-0.140361 -0.00863,-0.01649 -0.018877,-0.03229 -0.024727,-0.05007 -0.00246,-0.0098 -4.58e-4,-0.01925 -0.00559,-0.02829 -0.018319,-0.01888 -0.033455,-0.04077 -0.048784,-0.0621 -0.022303,-0.0288 -0.043113,-0.05861 -0.063172,-0.08899 -0.011856,-0.019 -0.026022,-0.03627 -0.040292,-0.05345 -0.00688,-0.0096 -0.011393,-0.02058 -0.020479,-0.02825 -0.021636,-0.01687 -0.040486,-0.03702 -0.059771,-0.05645 -0.033492,-0.03472 -0.07073,-0.06546 -0.1073514,-0.09676 -0.023987,-0.02008 -0.049161,-0.03866 -0.073196,-0.05867 -0.086469,-0.08122 -0.192885,-0.145293 -0.3067888,-0.178902 -0.014345,-0.0066 -0.029858,-0.0088 -0.04546,-0.0096 -0.014816,0.0018 -0.021905,-0.0014 -0.033132,-0.0099 -0.02263,-0.01476 -0.047047,-0.02601 -0.071423,-0.03751 -0.1053288,-0.0483 -0.2793396,-0.154953 0.1694562,0.102923 -0.10163,-0.05933 -0.1916166,-0.158659 -0.3097736,-0.172711 -0.011282,-10e-4 -0.022557,1.6e-4 -0.033828,5.7e-4 -0.01164,3.02e-4 -0.023285,3.2e-4 -0.034928,3.42e-4 -0.011169,2e-5 -0.022337,-1.2e-5 -0.033505,-2e-5 -0.015469,6e-5 -0.030937,1.8e-4 -0.046407,1.6e-4 -0.014918,0.0016 -0.028558,-0.004 -0.043159,-0.0059 -0.014357,-0.0024 -0.025297,-0.01376 -0.038801,-0.01989 -0.037857,-0.02011 -0.077196,-0.03656 -0.1172164,-0.05179 -0.043063,-0.01569 -0.086437,-0.03038 -0.1287124,-0.04813 -0.024372,-0.0096 -0.049548,-0.01669 -0.075668,-0.01884 -0.012977,-5.92e-4 -0.025966,6e-5 -0.038944,3.28e-4 -0.018803,3.28e-4 -0.037609,3.96e-4 -0.056415,4.68e-4 -0.037089,0.0014 -0.073208,0.01396 -0.1091302,0.02278 -0.027185,0.0058 -0.054023,0.0095 -0.079099,0.02186 -0.022572,0.01205 -0.045018,0.02433 -0.0676,0.03636 -0.030378,0.01537 -0.060363,0.03131 -0.090016,0.04805 -0.040004,0.02381 -0.082888,0.0419 -0.1257592,0.05975 -0.033837,0.01349 -0.066465,0.02968 -0.09956,0.04483 -0.040203,0.01782 -0.08275,0.02958 -0.124745,0.04232 -0.046325,0.01404 -0.091717,0.03039 -0.1394788,0.0388 -0.04028,0.0057 -0.081156,0.0062 -0.1217314,0.0045 -0.057564,-0.0037 -0.1139292,-0.01635 -0.1708298,-0.02498 -0.040684,-0.006 -0.081715,-0.0084 -0.1227738,-0.0095 -0.018686,-4.76e-4 -0.037378,-4.1e-4 -0.056068,-3.32e-4 -0.013938,-0.0051 -0.026121,-0.01382 -0.038628,-0.02185 -0.038444,-0.02203 -0.077974,-0.04208 -0.1167484,-0.06351 -0.043233,-0.02641 -0.089543,-0.04709 -0.1341908,-0.07088 -0.124226,-0.07238 0.3280766,0.188686 0.2134954,0.122375 -0.094282,-0.05456 -0.1794392,-0.13282 -0.2849062,-0.160078 -0.087597,-0.04936 -0.169234,-0.10133 0.2383678,0.138308 0.00105,6.16e-4 -0.00283,-0.0015 -0.0036,-5.92e-4 -0.00608,0.0074 -0.00594,0.01283 -0.00718,0.0213 0.036913,0.0055 0.07365,0.01195 0.110258,0.01921 0.055786,0.01158 0.1111556,0.02506 0.1660222,0.04039 0.058642,0.01613 0.117621,0.03079 0.1750096,0.05103 0.059817,0.02409 0.1202018,0.04663 0.1814104,0.06692 0.056202,0.01823 0.1134418,0.03294 0.1701704,0.04939 0.044442,0.01291 0.087677,0.02935 0.1330358,0.03881 0.042657,0.0073 0.08608,0.0089 0.1292362,0.0069 0.049763,-0.0015 0.099339,-0.0056 0.1489912,-0.009 0.037064,-0.0014 0.074031,-0.0036 0.1100212,-0.01295 0.026655,-0.0054 0.052877,-0.01258 0.078862,-0.02049 0.016292,-0.0035 0.030226,-0.01002 0.041336,-0.02246 0.011861,-0.01529 0.013514,-0.03105 0.0043,-0.0479 -0.032457,-0.04251 -0.076391,-0.07441 -0.119094,-0.105813 -0.1568428,-0.101827 -0.3182174,-0.198101 -0.4865928,-0.2797 -0.058099,-0.02821 -0.1179168,-0.0516 -0.1811206,-0.06504 -0.067673,-0.0114 -0.1365794,-0.01135 -0.205005,-0.01222 -0.055945,-4.84e-4 -0.1118922,-4.26e-4 -0.1678384,-5.24e-4 -0.030481,-2.56e-4 -0.061584,-3.02e-4 -0.091394,0.0068 -0.01704,0.0031 -0.032975,0.0087 -0.047537,0.01808 -0.011295,0.0085 -0.019446,0.02026 -0.028474,0.03099 -0.013479,0.01443 -0.028509,0.02744 -0.04287,0.04102 -0.015121,0.01457 -0.030709,0.02868 -0.043168,0.04567 -0.00508,0.0091 -0.00911,0.01937 -0.00803,0.03007 5.78e-4,0.0058 0.0048,0.01633 0.010097,0.01952 0.088538,0.05328 0.1785314,0.104096 0.2677972,0.156144 0.039269,0.01515 0.079885,0.0268 0.120959,0.03586 0.053129,0.0099 0.1072554,0.01097 0.1609076,0.01647 0.055905,0.0055 0.1119888,0.0085 0.1678326,0.01465 0.055741,0.0072 0.1106406,0.01951 0.165303,0.03236 0.051622,0.01207 0.102871,0.02568 0.153189,0.04239 0.033012,0.01176 0.067449,0.0166 0.1022138,0.01891 0.017976,0.0011 0.035986,8.92e-4 0.053982,6.78e-4 0.024919,0.0034 0.031065,-0.01505 0.03364,-0.03814 -0.150355,-0.108041 -0.2551662,-0.159184 -0.4161572,-0.198843 -0.095663,-0.02005 -0.1918802,-0.03767 -0.2882616,-0.05392 -0.054026,-0.009 -0.1085652,-0.01424 -0.163279,-0.01614 -0.022089,5.72e-4 -0.043442,-0.0034 -0.064224,-0.01013 0.00412,0.0056 -0.01089,-0.0066 -0.00826,-0.0048 0.2385994,0.164378 0.1679274,0.17407 0.3234654,0.180162 0.057139,0.0022 0.1143118,0.0033 0.1714856,0.004 0.040135,4.96e-4 0.080272,6.76e-4 0.1204088,9.1e-4 0.018556,1.2e-4 0.037113,2.62e-4 0.05567,3.34e-4 0.109875,0.0013 0.069283,0.03219 -0.2453492,-0.176983 -0.00742,-0.0049 -0.01781,1.4e-4 -0.026715,2.1e-4 -0.035407,-3.54e-4 -0.070897,0.0016 -0.1062168,-0.0013 -0.022046,-0.0028 -0.044409,-0.0032 -0.066385,-0.0065 -10e-5,-7.3e-4 -9.26e-4,-0.0026 -3.18e-4,-0.0022 0.2656166,0.183345 0.1659478,0.163663 0.3285138,0.190249 0.040239,0.0064 0.080474,0.01213 0.1211178,0.0152 0.026412,0.0016 0.052878,0.0021 0.079334,0.0022 0.010373,-4.98e-4 0.021617,10e-4 0.031533,-7.76e-4 -0.085137,-0.05931 -0.1686684,-0.121001 -0.2554112,-0.17794 -0.00722,-0.0047 -0.089896,-0.0084 -0.095208,-0.009 -0.061872,-0.0063 -0.067723,-0.0072 -0.1328596,-0.01481 -0.1341672,-0.01562 -0.268371,-0.03148 -0.4013682,-0.05529 -0.049868,-0.007 -0.096476,-0.0256 -0.1439916,-0.04103 0.00816,0.0081 -0.016361,-0.0086 -0.012656,-0.0058 0.2728078,0.206074 0.1743244,0.157761 0.3624632,0.234789 0.1134572,0.04602 0.2271952,0.09143 0.3423286,0.13311 0.091782,0.03357 0.1864376,0.05737 0.2829264,0.07225 0.062501,0.0082 0.125682,0.0063 0.188524,0.0048 0.027417,-7.54e-4 0.054837,-0.0014 0.082265,-0.0016 0.015253,-0.0029 0.028001,-0.0058 0.038997,-0.01722 0.013578,-0.01702 0.013654,-0.03473 -0.00165,-0.04986 -0.027645,-0.02395 -0.05788,-0.04475 -0.088063,-0.06534 C 6.9625412,13.135638 6.845265,13.058 6.7165104,13.004526 c -0.036251,-0.01315 -0.071349,-0.02941 -0.108625,-0.03948 -0.023562,-0.0055 -0.047612,-0.0079 -0.07175,-0.0083 -0.00249,1.1e-5 -0.00498,9e-6 -0.00747,4e-5 -0.00463,4e-5 -0.00752,9.06e-4 -0.011579,-0.0016 -0.0024,-0.0015 -0.00657,-0.0087 -0.00414,-0.0073 0.084109,0.04849 0.1671702,0.09877 0.2507554,0.148154 -0.068238,-0.04548 -0.1714424,-0.166773 -0.2824954,-0.163886 -0.040215,10e-4 -0.080444,0.0013 -0.1206704,0.0014 -0.032339,6e-5 -0.064679,-4e-5 -0.097017,-2.76e-4 -0.013511,-2.2e-4 -0.027029,-3e-6 -0.040538,-3.74e-4 0.2224084,0.178125 0.173482,0.189578 0.3315804,0.163566 0.084297,-0.01683 0.1698682,-0.02544 0.2555166,-0.03155 0.054164,-0.0036 0.1084464,-0.0043 0.1627102,-0.0044 0.039878,10e-5 0.079756,1.8e-4 0.1196332,3.28e-4 0.029808,10e-5 0.059615,2.34e-4 0.089423,4.56e-4 0.022188,6e-5 0.044375,-2e-5 0.066563,-6e-5 0.026253,-4e-5 0.052507,-4e-5 0.07876,-6e-5 0.027483,0.0024 0.054566,0.0067 0.081711,0.01155 0.03191,0.005 0.06405,0.0072 0.095981,0.01189 0.018127,0.0048 0.037941,0.0014 0.055733,0.0069 0.019876,0.0099 0.04111,0.01622 0.062865,0.0204 0.019869,0.0016 0.038903,0.0066 0.058391,0.01015 0.012154,0.0036 0.026182,-0.0013 0.037504,0.0042 0.014778,0.01361 0.033843,0.02118 0.052116,0.02882 0.042656,0.01437 0.08711,0.02159 0.1312256,0.02981 0.042498,0.0067 0.085173,0.01209 0.1277748,0.01814 0.024058,7.44e-4 0.044195,0.01445 0.066605,0.02108 0.034436,0.01007 0.068054,0.02272 0.102751,0.03186 0.039074,0.01095 0.078975,0.01839 0.1192642,0.02304 0.027113,0.0048 0.054438,0.0085 0.081917,0.01026 0.013135,3.32e-4 0.025489,-3.94e-4 0.037902,0.0037 0.049335,0.09526 -0.331264,-0.225627 -0.2321336,-0.123652 0.019949,0.0294 0.045002,0.05482 0.069257,0.08061 0.052651,0.05499 0.1010264,0.11383 0.1486764,0.173143 0.045968,0.05821 0.090385,0.117618 0.135354,0.176597 0.033671,0.04207 0.065623,0.08544 0.09791,0.128564 0.013311,0.01833 0.028553,0.03509 0.042126,0.0532 0.00983,0.01091 0.021543,0.01991 0.032334,0.02984 0.013553,0.01276 0.026555,0.02608 0.039564,0.03939 0.011703,0.01284 0.024921,0.02427 0.036123,0.03755 0.00776,0.0092 0.00872,0.02005 0.010252,0.03141 0.010571,0.02398 0.021343,0.04762 0.029947,0.07249 0.013737,0.04185 0.026636,0.08398 0.040098,0.125919 0.011066,0.03258 0.023896,0.06442 0.03119,0.09811 0.0061,0.03498 0.00587,0.07068 0.00618,0.106076 4e-5,0.04481 0.00113,0.08961 -0.00215,0.13433 -0.00538,0.0462 -0.016719,0.09159 -0.029989,0.136103 -0.011783,0.03714 -0.027634,0.07277 -0.044081,0.108024 -0.010766,0.0232 -0.020985,0.04657 -0.035496,0.06771 -0.013296,0.0182 -0.026854,0.03608 -0.04265,0.05219 -0.020598,0.02206 -0.045793,0.0386 -0.071505,0.054 -0.019069,0.0113 -0.036623,0.02621 -0.058849,0.03052 -0.018767,0.0072 -0.037749,0.01348 -0.057575,0.0171 -0.02004,0.003 -0.04029,0.0039 -0.060525,0.004 -0.016588,-2.8e-4 -0.033176,-1.4e-4 -0.049766,-1e-4 -0.02632,4e-5 -0.052641,4e-5 -0.078961,2e-5 -0.023884,-2e-5 -0.047766,-1.2e-4 -0.07165,-10e-5 -0.032388,-8e-5 -0.064776,0.0012 -0.097106,-9.58e-4 -0.039426,-0.0028 -0.078924,-0.0043 -0.1184296,-0.0053 -0.024402,-4.8e-4 -0.048806,-8.14e-4 -0.073212,-9.44e-4 -0.00846,6.74e-4 -0.015434,-8.88e-4 -0.020747,-0.0076 0,0 0.2376188,0.185837 0.2376188,0.185837 v 0 c 0.00888,-6.44e-4 0.017785,-0.0013 0.026693,-0.0012 0.023872,-2e-5 0.047747,4e-5 0.071612,7.12e-4 0.039326,0.0012 0.0786,0.0033 0.1178818,0.0054 0.032959,6.1e-4 0.065924,5.1e-4 0.098888,7.04e-4 0.023792,2e-5 0.047584,-6e-5 0.071376,-8e-5 0.026399,2e-5 0.052799,4e-5 0.079197,2.02e-4 0.01697,1.2e-4 0.033962,5.86e-4 0.050909,-5.5e-4 0.021267,-0.0015 0.042525,-0.0039 0.063274,-0.009 0.020228,-0.0056 0.040018,-0.01238 0.059784,-0.01938 0.02181,-0.0101 0.041292,-0.02409 0.061674,-0.03672 0.027274,-0.01743 0.053484,-0.03652 0.075716,-0.06025 0.016656,-0.01767 0.031884,-0.03649 0.045787,-0.05641 0.014971,-0.02277 0.025922,-0.04745 0.036983,-0.07229 0.016837,-0.03662 0.032835,-0.07368 0.045196,-0.112098 0.014465,-0.04626 0.025759,-0.09375 0.033034,-0.141663 0.00433,-0.04541 0.00376,-0.09093 0.00371,-0.136513 3e-6,-0.03681 6.94e-4,-0.07375 -0.00304,-0.110413 -0.00541,-0.03554 -0.016507,-0.06912 -0.030316,-0.102284 -0.014134,-0.04164 -0.026756,-0.08377 -0.039881,-0.125742 -0.00762,-0.0246 -0.01332,-0.05078 -0.027435,-0.07265 -0.00862,-0.0093 -0.00333,-0.02446 -0.00867,-0.03569 -0.00689,-0.01828 -0.019114,-0.03172 -0.033269,-0.04496 -0.012976,-0.01343 -0.02595,-0.02686 -0.039031,-0.04019 -0.01022,-0.01036 -0.020254,-0.02114 -0.032352,-0.02937 -0.018225,-0.01315 -0.029318,-0.03451 -0.045194,-0.05024 -0.033943,-0.04271 -0.065563,-0.08721 -0.1002208,-0.129364 -0.04521,-0.05934 -0.090501,-0.11861 -0.1361106,-0.177639 -0.047087,-0.05941 -0.094581,-0.118596 -0.1457908,-0.17454 -0.023171,-0.02464 -0.047017,-0.04888 -0.067947,-0.07549 -0.051035,-0.09821 -0.1888714,-0.185533 -0.2853826,-0.177637 -0.012883,-3.34e-4 -0.025859,8.48e-4 -0.038722,-0.0014 -0.026735,-0.0028 -0.05329,-0.0069 -0.079905,-0.01064 -0.039349,-0.0062 -0.078264,-0.01483 -0.1163878,-0.02642 -0.034305,-0.01093 -0.068568,-0.02203 -0.1026124,-0.03374 -0.022598,-0.0091 -0.04566,-0.0146 -0.070049,-0.01621 -0.041824,-0.0056 -0.08386,-0.0098 -0.125253,-0.01824 -0.043643,-0.0087 -0.087933,-0.0174 -0.1283706,-0.03668 -0.018362,-0.0092 -0.036935,-0.02302 -0.058067,-0.02333 -0.012476,7.38e-4 -0.024628,-0.002 -0.036754,-0.0047 -0.01889,-0.004 -0.038291,-0.0051 -0.056818,-0.01088 -0.021537,-0.0068 -0.042622,-0.01638 -0.065223,-0.01861 -0.018545,-4.3e-4 -0.036845,-0.0038 -0.055244,-0.0059 -0.031765,-0.0038 -0.063725,-0.0063 -0.09517,-0.01247 -0.028116,-0.0044 -0.05647,-0.0081 -0.084993,-0.0078 -0.026301,-4e-6 -0.052603,-1.1e-5 -0.078904,-6e-5 -0.022244,-4e-5 -0.044489,-1.2e-4 -0.066733,-8e-5 -0.029455,2e-4 -0.058911,2.68e-4 -0.088367,2.5e-4 -0.039847,-1.7e-5 -0.079696,-2.72e-4 -0.1195426,1.2e-4 -0.053921,8.02e-4 -0.1078084,0.003 -0.1615356,0.0079 -0.086488,0.0077 -0.1726482,0.01845 -0.2584252,0.03198 -0.1510304,0.02043 -0.1515488,-0.02307 0.156497,0.185573 0.01318,-3.82e-4 0.026372,-1.4e-4 0.039555,-3.88e-4 0.031925,-3.02e-4 0.063851,-5.28e-4 0.095776,-7.78e-4 0.040476,-3.04e-4 0.080968,-8.44e-4 0.1214374,1.2e-4 0.1268712,0.0086 -0.2486608,-0.265868 -0.2346948,-0.136837 0.3979836,0.252233 0.1511758,0.156341 0.2895208,0.162598 0.022471,0.0021 0.044775,0.0061 0.066193,0.01342 0.035809,0.01275 0.071177,0.02688 0.1060948,0.04189 0.016346,0.0077 0.019698,0.0091 0.035582,0.01761 0.00579,0.0031 0.022895,0.01294 0.017207,0.0096 -0.420556,-0.243814 -0.291785,-0.169355 -0.202279,-0.11679 0.030129,0.01925 0.05939,0.03976 0.088061,0.06112 0.00793,0.0059 0.018616,0.01169 0.025034,0.0023 -0.00928,-2.24e-4 -0.01826,0.0025 -0.02756,0.0015 -0.026868,9.3e-4 -0.053722,0.0022 -0.080593,0.003 -0.061104,0.0018 -0.1225368,0.0025 -0.1830544,-0.0077 -0.09479,-0.01636 -0.1875344,-0.04158 -0.2777208,-0.07523 -0.1151144,-0.04216 -0.2290892,-0.08737 -0.3422434,-0.134534 -0.032531,-0.01335 -0.05285,-0.02188 -0.084705,-0.03432 -0.00921,-0.0036 -0.035127,-0.01707 -0.027717,-0.01053 0.2418384,0.213447 0.1282122,0.151878 0.2315108,0.182425 0.046465,0.01518 0.093841,0.02713 0.1422926,0.03415 0.1325922,0.0206 0.2659902,0.03521 0.3991062,0.05194 0.061339,0.0077 0.1226814,0.01535 0.1840842,0.02255 0.1344646,0.01577 0.1239292,0.03283 -0.180085,-0.170467 -0.00582,-0.0017 -0.020292,1.2e-5 -0.028834,-6.36e-4 -0.025649,-2.58e-4 -0.05131,-9.64e-4 -0.076857,-0.0034 -0.040009,-0.0041 -0.079709,-0.01031 -0.1194062,-0.01668 -0.1667018,-0.02717 -0.059869,0.0086 0.1508036,0.172827 7.56e-4,5.88e-4 0.00162,-10e-4 0.00244,-0.0015 0.021923,9e-4 0.043742,0.0036 0.065691,0.0042 0.03581,5.18e-4 0.071627,6e-5 0.1074392,4.1e-4 0.0091,6e-5 0.034396,0.0059 0.027289,2.12e-4 -0.247114,-0.197414 -0.1373454,-0.178622 -0.241848,-0.176964 -0.0182,10e-5 -0.036399,2.76e-4 -0.054599,4e-4 -0.039587,2.02e-4 -0.079176,2.22e-4 -0.1187622,-1.8e-4 -0.057064,-6.96e-4 -0.1141186,-0.002 -0.1711286,-0.0047 -0.013004,-4.64e-4 -0.036622,-0.0016 -0.050003,-0.0011 -0.00714,2.54e-4 -0.026668,-0.003 -0.021352,0.0018 0.3148276,0.282464 0.1284882,0.164716 0.2361872,0.183176 0.021901,0.0039 0.044381,0.0033 0.066535,0.0043 0.053007,0.0026 0.1058196,0.0081 0.1581612,0.017 0.095829,0.01623 0.1918364,0.03243 0.286243,0.05574 0.037562,0.01056 0.074783,0.02131 0.1112058,0.0354 0.099091,0.03834 0.235193,0.14556 -0.2098868,-0.127568 0.013102,-0.01407 0.035942,-0.0319 0.00285,-0.02764 -0.017149,-6e-5 -0.03431,-5.52e-4 -0.05137,-0.0024 -0.033205,-0.0041 -0.065515,-0.01233 -0.097216,-0.02304 -0.050855,-0.0151 -0.1022302,-0.02833 -0.1539836,-0.04 -0.055404,-0.01233 -0.1110984,-0.02397 -0.1676672,-0.0295 -0.055902,-0.0051 -0.1119306,-0.0087 -0.1677738,-0.0145 -0.05309,-0.0049 -0.1068124,-0.0067 -0.158689,-0.02021 -0.040212,-0.01104 -0.081215,-0.02226 -0.1174972,-0.04338 0.546644,0.319831 0.316606,0.141465 0.2241078,0.140375 -0.00343,-4e-5 -0.00169,-0.0021 -0.00109,-0.004 0.011282,-0.01549 0.02644,-0.02765 0.039823,-0.04124 0.015247,-0.01432 0.031398,-0.02781 0.045234,-0.04353 0.0067,-0.0079 0.012659,-0.017 0.022359,-0.02135 0.013441,-0.0052 0.027526,-0.0082 0.041739,-0.01049 0.028986,-0.0029 0.057989,-0.0041 0.087135,-0.0036 0.055252,-4.98e-4 0.1105108,-9.58e-4 0.1657636,-2.68e-4 0.067477,0.0013 0.1356244,0.0024 0.2016474,0.01799 0.060931,0.01681 0.1191966,0.04118 0.1758224,0.06921 0.092007,0.04651 0.2569272,0.145782 -0.1371354,-0.08428 -0.013538,-0.0079 0.027305,0.01541 0.04084,0.02332 0.013204,0.0077 0.026354,0.01553 0.039373,0.02355 0.01234,0.0076 0.024465,0.01555 0.036698,0.02332 0.041544,0.02914 0.083095,0.05883 0.1181674,0.09581 0.00662,0.0059 0.016648,0.0066 0.015294,0.0087 -0.01002,0.0057 -0.022409,0.0067 -0.033004,0.01104 -0.025224,0.0077 -0.050991,0.01361 -0.076803,0.01896 -0.03521,0.0061 -0.070887,0.0077 -0.1064944,0.01018 -0.049303,0.0037 -0.098645,0.0068 -0.1480994,0.0076 -0.041961,-5.26e-4 -0.084129,-0.0028 -0.12499,-0.01314 -0.04419,-0.01202 -0.087386,-0.02739 -0.1316108,-0.03932 -0.056416,-0.01581 -0.1130446,-0.03101 -0.1685176,-0.04996 -0.061058,-0.02115 -0.1209994,-0.04519 -0.1817872,-0.06707 -0.058315,-0.01847 -0.1176366,-0.03342 -0.176518,-0.04996 -0.055369,-0.0144 -0.1110618,-0.02762 -0.167231,-0.03854 -0.039061,-0.0072 -0.080656,-0.01873 -0.120309,-0.0111 -0.098578,0.09305 0.1641578,0.16628 0.257021,0.198691 0.087252,0.04948 0.1910826,0.110244 -0.2319032,-0.1341 -0.00412,-0.0024 0.00814,0.0049 0.012251,0.0073 0.2720952,0.157761 0.1785532,0.108391 0.2875232,0.165554 0.044896,0.02267 0.089637,0.04562 0.1331606,0.07087 0.039672,0.02142 0.079351,0.04283 0.1185904,0.06504 0.015606,0.0073 0.030963,0.0133 0.048499,0.01022 0.018111,-1.2e-4 0.036225,-10e-5 0.054328,4.96e-4 0.039874,0.0016 0.079668,0.005 0.1190896,0.0113 0.057535,0.0093 0.115005,0.02058 0.173451,0.02205 0.042251,2.82e-4 0.084791,-3.5e-4 0.12623,-0.0096 0.047502,-0.01112 0.093229,-0.0281 0.1400624,-0.04166 0.043476,-0.01301 0.08745,-0.02521 0.1285374,-0.04485 0.032566,-0.01527 0.065076,-0.03068 0.098312,-0.04447 0.043497,-0.01876 0.086467,-0.03868 0.1276204,-0.06224 0.029962,-0.01618 0.060528,-0.03113 0.090608,-0.04708 0.022024,-0.01166 0.043818,-0.02392 0.066702,-0.03384 0.024388,-0.0084 0.050331,-0.01137 0.07502,-0.01885 0.034814,-0.0087 0.069871,-0.01819 0.1060974,-0.01609 0.019091,4e-6 0.038183,-3e-6 0.057274,-5e-6 0.012012,10e-5 0.024058,5.4e-4 0.035819,0.0032 0.024042,0.0056 0.047288,0.0139 0.070088,0.02329 0.04251,0.01628 0.085734,0.03062 0.12805,0.04742 0.040046,0.01646 0.078912,0.03532 0.117409,0.05513 0.014803,0.008 0.028151,0.01286 0.045058,0.01297 0.01519,0.0026 0.030149,0.0026 0.045538,0.002 0.015629,-1.7e-5 0.031258,1.2e-4 0.046887,1.6e-4 0.011175,-1.7e-5 0.02235,-6e-5 0.033525,-1.4e-4 0.011616,-10e-5 0.023234,-3.02e-4 0.034851,-1.4e-4 0.00985,4.06e-4 0.019547,0.0018 0.028512,0.0062 0.1181248,0.06226 -0.3537792,-0.210365 -0.2090276,-0.119008 0.115042,0.06618 0.2250468,0.136624 0.3449792,0.191674 0.024597,0.01229 0.048004,0.02694 0.073333,0.03768 0.01267,0.0028 0.025604,-3.66e-4 0.038253,0.0035 0.014302,0.0036 0.027814,0.0093 0.041705,0.01413 0.127256,0.05252 -0.337067,-0.214136 -0.20914,-0.119407 0.023478,0.0216 0.048711,0.04105 0.074406,0.05994 0.037057,0.0302 0.073713,0.06112 0.1084408,0.09397 0.018756,0.0194 0.037374,0.03895 0.056278,0.05819 0.00841,0.007 0.019031,0.01 0.024164,0.02086 0.011293,0.01983 0.028421,0.03498 0.041259,0.05379 0.021057,0.03007 0.039777,0.0618 0.063361,0.09006 0.01548,0.02114 0.030069,0.04302 0.045456,0.06416 0.00782,0.0048 0.013236,0.0014 0.012349,0.01395 0.00272,0.02145 0.010738,0.04086 0.022601,0.059 0.026579,0.04422 0.046344,0.09187 0.067236,0.138936 0.023251,0.05272 0.047739,0.104888 0.070539,0.157812 0.00472,0.0098 0.014378,0.04154 0.027473,0.04146 0.00885,-0.0031 0.00577,0.01409 0.00639,0.019 4.98e-4,0.01589 0.00195,0.0317 0.00517,0.04729 0.00592,0.03312 0.00738,0.06668 0.00924,0.100242 5.22e-4,0.06435 9.02e-4,0.128696 7.8e-4,0.193045 -2.48e-4,0.04892 -5.98e-4,0.09784 -0.00203,0.146739 -1.4e-4,0.0076 1.4e-4,0.01516 2.74e-4,0.02276 -2.58e-4,0.01031 -0.00236,0.02033 -0.00687,0.02968 -0.01105,0.02265 -0.024853,0.04343 -0.03851,0.06459 -0.020644,0.0353 -0.040252,0.07119 -0.061261,0.106272 -0.006,0.01149 -0.014285,0.02431 -0.013436,0.03767 3.28e-4,0.0061 -0.0015,0.0083 -0.00751,0.01072 -0.014948,0.0058 -0.030973,0.0085 -0.046209,0.01345 -0.016071,0.005 -0.033232,0.01387 -0.050267,0.01133 -0.010512,-6e-6 -0.021024,4e-5 -0.031537,6e-5 -0.015595,4e-5 -0.03119,1.4e-4 -0.046785,2.14e-4 -0.022672,8e-5 -0.045345,4e-5 -0.068017,-1.2e-4 -0.013147,-10e-5 -0.026292,-1.8e-4 -0.039439,-2e-5 -0.022516,1.4e-4 -0.045032,3.6e-4 -0.067548,4.12e-4 -0.0422,1.6e-4 -0.084401,3.92e-4 -0.1266014,4.36e-4 -0.055416,10e-5 -0.1108312,6e-5 -0.1662468,6e-5 -0.055333,-6e-5 -0.1106668,10e-6 -0.1660002,7e-6 -0.053087,-4e-6 -0.1061758,8e-5 -0.15926,-5.2e-4 -0.033113,-1.2e-4 -0.066225,-3.4e-4 -0.099338,-2.22e-4 -0.045885,1.8e-4 -0.091792,3.58e-4 -0.1376384,0.0024 -0.061832,0.0035 -0.1235072,0.0099 -0.1839164,0.02416 -0.068997,0.01543 -0.137945,0.03143 -0.2054704,0.05254 -0.031395,0.01008 -0.07206,0.02993 -0.1039116,0.03056 -0.01218,4e-5 -0.02436,4e-5 -0.036539,1.2e-4 -0.024586,1.6e-4 -0.049172,4.08e-4 -0.073758,4.7e-4 -0.049531,2.32e-4 -0.099062,4.48e-4 -0.148594,5.64e-4 -0.052991,1.2e-4 -0.1060064,-2.8e-4 -0.1589666,0.0018 -0.034865,0.0018 -0.069591,0.0054 -0.1044872,0.0066 -0.058661,0.0033 -0.1172028,0.0083 -0.1758424,0.01193 -0.084364,0.0046 -0.1687406,0.0088 -0.253129,0.01288 0,0 0.243597,0.173969 0.243597,0.173969 z" />
  <path
     style="fill:#000000;stroke-width:0.0204604"
     d="M 4.7263428,9.9460718 C 4.4774554,9.8656046 4.2806046,9.7130734 4.153977,9.50257 3.7640898,8.8544284 4.2371078,8.0199686 4.9953422,8.0183024 5.1794918,8.0178984 5.283956,8.042752 5.4496424,8.1263902 5.8384178,8.3226434 6.0621032,8.7837706 5.966463,9.1918162 5.8771914,9.5726912 5.6059824,9.8598832 5.2473666,9.9532908 5.0892576,9.994473 4.866503,9.9913866 4.7263428,9.9460718 Z"
     id="path240" />
  <path
     style="fill:#000000;stroke-width:0.02"
     id="path242"
     d="m 4.1035926,8.4021148 c -0.019185,0.052076 -0.041938,0.1026956 -0.060553,0.1549896 -0.008,0.023331 -0.013344,0.047395 -0.015582,0.071937 -8.96e-4,0.012301 -6.64e-4,0.024642 -5.06e-4,0.036963 0.00122,0.016304 1.2e-4,0.032012 -0.00327,0.047975 -0.00728,0.028452 -0.013912,0.057031 -0.019957,0.085771 -0.00479,0.02384 -0.00783,0.047963 -0.00919,0.072229 -0.00104,0.017463 -3e-4,0.034955 -0.00188,0.052377 -0.0033,0.032169 -0.010572,0.063654 -0.017449,0.095185 -0.00842,0.039419 -0.01148,0.079661 -0.013519,0.1198298 -0.001,0.0249 -0.00152,0.049816 -0.00175,0.074734 -8e-5,0.012396 -4e-5,0.024791 -1.2e-4,0.037187 -0.00234,0.017043 0.00242,0.028343 0.012804,0.041788 0.026598,0.031166 0.052594,0.062816 0.079369,0.093843 0.030607,0.036675 0.060145,0.074285 0.088902,0.11243 0.018095,0.02553 0.035015,0.051808 0.053996,0.076704 0.00957,0.012389 0.02116,0.022783 0.033828,0.031868 0.00988,0.00945 0.02136,0.016936 0.03185,0.025564 0.00855,0.00323 0.014356,0.00767 0.019206,0.015369 0.00908,0.013996 0.02107,0.025539 0.030745,0.039105 0.013762,0.020655 0.030324,0.03918 0.044807,0.059295 0.00545,0.00562 0.013951,0.033587 0.022176,0.020211 C 4.3924228,9.632011 4.7482984,9.9747076 4.6019462,9.8674342 4.5183714,9.8013374 4.4411962,9.7276076 4.3653096,9.6529512 4.2979194,9.584258 4.2324458,9.513681 4.1686166,9.4416716 4.1375474,9.4050848 4.1033306,9.3711296 4.0752526,9.3321156 4.0529534,9.2981058 4.0397242,9.2594238 4.0265568,9.221245 4.0110548,9.181195 4.0036394,9.1393304 3.9996308,9.096791 c -0.00486,-0.04826 0.0031,-0.096275 0.010263,-0.1438518 0.00572,-0.033929 0.00786,-0.068753 0.018081,-0.1017636 0.00648,-0.014725 0.01586,-0.028761 0.026967,-0.04044 0.00554,-0.014132 0.017537,0.00584 0.01367,0.0038 C 3.8223908,8.6844784 3.7644774,8.60011 3.8301886,8.6911528 c 0.037469,0.093975 0.034002,0.2003362 0.034828,0.2998634 -0.00276,0.1551458 -0.017405,0.3097724 -0.037026,0.4635996 -0.010504,0.075351 -0.019798,0.1508636 -0.025257,0.2267574 -0.00898,0.1422642 -0.012241,0.086964 0.2687292,0.1770936 0.010175,0.00326 0.00364,-0.02106 0.00545,-0.03159 0.013442,-0.1150718 0.01067,-0.231139 0.00809,-0.3467082 -0.00314,-0.1268398 -0.0067,-0.253672 -0.0039,-0.3805416 0.0025,-0.093078 0.013849,-0.1855238 0.027668,-0.2774986 0.00892,-0.043157 0.0089,-0.088263 0.021818,-0.1305588 0.00114,-0.00202 0.00159,-0.00465 0.00343,-0.00607 4.54e-4,-3.48e-4 0.023134,0.026801 -3.34e-4,0.014753 C 3.6571844,8.4556418 3.8499276,8.4849536 3.8961726,8.5790238 c 0.012962,0.038678 0.018019,0.079334 0.021539,0.1197918 0.011271,0.1541694 0.096181,0.1211556 0.2856856,0.227182 0.037255,-0.019779 0.064436,-0.053133 0.090737,-0.085232 0.028233,-0.038034 0.057132,-0.075619 0.084601,-0.1142158 0.015847,-0.025335 0.033868,-0.049126 0.051297,-0.073346 0.010052,-0.01403 0.016353,-0.029566 0.019195,-0.046484 0.00377,-0.030305 0.015105,-0.059314 0.024631,-0.088179 0.01462,-0.042779 0.032599,-0.084299 0.046866,-0.1271994 0.04203,-0.1201986 -0.1619102,-0.2291142 -0.275417,-0.1859374 -0.033918,0.013183 -0.064312,0.033707 -0.093439,0.055191 -0.030388,0.023533 -0.058131,0.050223 -0.085548,0.077091 -0.016182,0.01623 -0.033934,0.030767 -0.043035,0.05214 0.2597318,0.1510128 0.2241864,0.2148122 0.358836,0.072318 0.034683,-0.039325 0.065669,-0.081752 0.097204,-0.1236046 0.017817,-0.024099 0.036623,-0.047422 0.056668,-0.069697 0.021933,-0.024818 0.01395,8.42e-4 0.011065,-7.2e-4 C 4.2838882,8.125751 4.321534,8.0225974 4.2871064,8.1316278 4.2647658,8.1868154 4.2346318,8.2384704 4.2039328,8.289337 4.17131,8.3417746 4.1367658,8.3929586 4.1044066,8.4455602 c -0.016901,0.028242 -0.037201,0.054582 -0.049716,0.085207 -0.03331,0.11465 0.099001,0.086515 0.2630448,0.1740772 0.00705,0.00376 0.038061,-0.015831 0.04374,-0.018762 0.043805,-0.027476 0.081596,-0.06343 0.119131,-0.098709 C 4.53275,8.5372128 4.582552,8.4847366 4.6350804,8.4349758 4.6862618,8.3878396 4.739368,8.3427544 4.7968028,8.3034226 4.855089,8.2659664 4.9188386,8.2383662 4.9822598,8.210988 5.051962,8.1810068 5.1243578,8.1581006 5.1961904,8.1339218 5.2326606,8.1202372 5.2699058,8.108521 5.30862,8.1035508 5.4286398,8.093826 5.4697762,8.1884062 5.0846536,7.9341892 5.0111124,7.9670334 4.9397686,8.0046208 4.86772,8.04058 4.7709264,8.090562 4.6727526,8.1377948 4.5755578,8.1869734 c -0.047202,0.024218 -0.095613,0.04607 -0.1424582,0.070979 -0.016798,0.012716 -0.037396,0.01326 -0.056267,0.019465 -0.00596,4.64e-4 -0.00398,0.00173 -0.00674,-0.00209 0.085783,0.04953 0.1697874,0.1022748 0.2573476,0.1485898 0.00326,0.00172 0.00265,-0.00689 0.00429,-0.010195 0.0045,-0.00907 0.011096,-0.019201 0.01635,-0.027686 0.021681,-0.032017 0.04723,-0.061059 0.069582,-0.092602 0.014366,-0.02224 0.031597,-0.042333 0.047604,-0.063336 0.010312,-0.012588 0.014202,-0.028106 0.019686,-0.04297 0.00832,-0.014099 0.018516,-0.026697 0.026032,-0.041356 0.00874,-0.017481 0.011077,-0.036714 0.014186,-0.05571 -0.2619414,-0.1578314 -0.206497,-0.1900916 -0.3398172,-0.09664 -0.02243,0.015347 -0.046148,0.02952 -0.064987,0.049347 -0.05755,0.095105 -0.016047,0.021276 0.2671868,0.1577458 0.00229,0.0011 0.067895,-0.046497 0.075005,-0.051993 0.032457,-0.022669 0.061435,-0.049995 0.094319,-0.072024 0.012227,-0.00836 0.025113,-0.01027 0.03943,-0.00937 0.010513,-6e-5 0.016039,0.00141 0.023805,0.00801 0.019526,0.011543 0.039919,0.021598 0.060045,0.032053 C 5.0959748,8.170312 4.6152544,7.8966084 4.781997,7.995429 4.873174,7.972838 4.9671178,8.1568014 5.0812738,8.1521514 c 0.018363,-6.66e-4 0.036738,-7.84e-4 0.055111,-9.64e-4 0.03278,4.04e-4 0.065361,-4.16e-4 0.098014,-0.00314 0.027056,-0.00234 0.054199,-0.00337 0.081346,-0.0038 0.014362,-1.6e-4 0.028725,-2.2e-6 0.043088,8e-5 0.019664,-8e-5 0.039329,-1.4e-4 0.058992,-3.3e-4 0.033126,-0.00149 0.065975,0.00102 0.098917,0.00409 0.018863,0.00139 0.03677,0.0076 0.055594,0.00962 0.092666,0.046696 0.2064276,0.1184968 -0.2275274,-0.1314012 0.029553,0.020303 0.057704,0.042675 0.087006,0.06343 0.04013,0.029502 0.080981,0.05802 0.1207732,0.087978 0.028657,0.022441 0.058079,0.043863 0.08622,0.066958 0.015016,0.01293 0.029366,0.026451 0.044856,0.038812 0.00974,0.00858 0.016427,0.020159 0.024554,0.03031 0.012753,0.021734 0.021232,0.045524 0.027623,0.069796 0.00766,0.036659 0.00816,0.074292 0.0089,0.1115882 6.48e-4,0.038785 10e-5,0.077574 1.4e-4,0.1163602 -8e-5,0.0252 -4.98e-4,0.050397 -7.8e-4,0.075596 -4e-5,0.022801 3.66e-4,0.045598 3.5e-4,0.068399 -1.74e-5,0.027544 -8.2e-6,0.055088 -4e-6,0.082631 -8.66e-4,0.028879 6.68e-4,0.057584 0.00545,0.086068 0.00635,0.033459 0.017303,0.06575 0.026963,0.098335 0.01446,0.051786 0.02704,0.104073 0.039772,0.1563034 0.012257,0.047063 0.024056,0.094117 0.030859,0.142308 0.00338,0.02624 0.00444,0.052695 0.0047,0.079126 -6e-5,0.018386 4e-5,0.036772 -10e-5,0.055158 -6.16e-4,0.015394 8.16e-4,0.030923 -0.00136,0.046201 -0.00616,0.023916 -0.01725,0.046234 -0.027657,0.068523 -0.014361,0.033707 -0.036139,0.062942 -0.05901,0.091233 -0.041332,0.051755 -0.095021,0.090925 -0.1486592,0.1288482 -0.063439,0.045064 -0.1313574,0.083038 -0.1997618,0.1198934 -0.065415,0.035648 -0.1352904,0.061453 -0.2056092,0.085432 -0.044968,0.014806 -0.090115,0.028986 -0.1341026,0.046545 -0.020689,0.0084 -0.041805,0.0158 -0.064185,0.01731 -0.01146,1.6e-4 -0.022911,-4.82e-4 -0.034367,-7.26e-4 -0.013371,0.0024 -0.019545,-0.0044 -0.030709,-0.0097 -0.034003,-0.01748 -0.070049,-0.03052 -0.1057974,-0.04391 -0.039646,-0.013485 -0.077418,-0.031556 -0.116939,-0.04532 -0.021569,-0.011353 -0.046608,-0.012237 -0.069112,-0.019996 -0.090546,-0.045691 -0.2029418,-0.1181112 0.2285936,0.1327644 -0.00407,-0.0032 -0.013001,-0.0071 -0.012757,0.0014 0.00587,0.0023 0.018033,-0.0042 0.024641,-0.0063 0.013357,-0.0093 0.026056,-0.0193 0.039933,-0.02795 0.032146,-0.01667 0.062327,-0.03679 0.093083,-0.055828 0.03877,-0.023845 0.081,-0.040847 0.1230406,-0.057859 0.030426,-0.012023 0.059553,-0.02711 0.090954,-0.03652 0.019954,-0.0046 0.039957,-0.00928 0.05963,-0.015059 0.032469,-0.01032 0.064636,-0.021565 0.096845,-0.032661 0.039683,-0.013857 0.079576,-0.027116 0.1190928,-0.041442 0.030465,-0.011069 0.059335,-0.025968 0.090386,-0.035405 0.01351,-0.00409 0.027468,-0.00397 0.041398,-0.00349 0.012183,5.56e-4 0.024374,6.3e-4 0.036566,4.78e-4 0.035308,-5.02e-4 0.070622,-4.42e-4 0.1059334,-4.66e-4 0.038221,0.00142 0.076191,-0.00108 0.1142674,-0.00383 0.023133,-0.00162 0.046308,-0.00249 0.069495,-0.00267 0.00883,1.2e-6 0.00494,-8.5e-4 0.011801,0.00176 -0.085685,-0.04867 -0.1685138,-0.1027522 -0.2570616,-0.1459916 -0.00551,-0.00269 -0.00526,0.011096 -0.00848,0.016313 -0.012815,0.020792 -0.024448,0.034281 -0.039869,0.053964 -0.068202,0.081256 -0.1421774,0.1574302 -0.214752,0.234743 -0.052629,0.053597 -0.1019196,0.1103716 -0.1542518,0.1642336 -0.00549,0.0052 -0.010815,0.01053 -0.01647,0.01552 -0.00181,0.0016 -0.017326,0.01575 -0.023354,0.01564 -0.00203,-4e-5 -0.00542,-0.0058 -0.00363,-0.0049 0.2598038,0.139283 0.2511768,0.23729 0.2563994,0.126752 0.021006,-0.06543 0.05822,-0.124389 0.091159,-0.184314 0.036199,-0.067677 0.071462,-0.1358608 0.1059452,-0.2044272 0.017296,-0.035096 0.037037,-0.069565 0.044777,-0.10827 C 5.7716664,9.5575702 5.5639774,9.5313656 5.4391454,9.5724264 5.3604344,9.6029814 5.2911274,9.6521374 5.2219922,9.6996312 5.1600002,9.7420302 5.0996566,9.7866472 5.0399284,9.83215 4.9193676,9.928371 4.9077688,9.82835 5.2407642,10.012687 5.2448342,9.995475 5.2584392,9.982891 5.2702762,9.970544 5.3707262,9.8763742 5.105783,9.7409164 5.004597,9.807458 4.969774,9.830934 4.935554,9.855263 4.900227,9.877983 4.87747,9.887733 4.855491,9.915034 4.829031,9.914307 c 0.03987,-0.104506 -0.00417,6.8e-4 0.2578704,0.150276 0.00419,0.0024 0.00714,-0.0065 0.010848,-0.0096 0.018056,-0.01497 0.037278,-0.02839 0.056403,-0.04194 0.035855,-0.02624 0.074374,-0.048349 0.1124648,-0.071075 0.00944,-0.00354 0.040107,-0.032344 0.050942,-0.022291 C 5.0364118,9.727719 5.1470542,9.7427228 4.9897546,9.7881528 c -0.058504,0.015891 -0.1176988,0.028734 -0.1777406,0.037062 -0.069427,0.00943 -0.1355398,-0.0054 -0.2006366,-0.028149 -0.01207,-0.0049 -0.024278,-0.00947 -0.036209,-0.014702 C 4.5475,9.7702652 4.5186634,9.755854 4.4921308,9.741487 4.4784008,9.7340526 4.4378422,9.710613 4.4513692,9.7184104 4.6925302,9.8574224 4.7347538,9.8834036 4.6324856,9.8213678 4.5849794,9.7911978 4.5376858,9.7607142 4.4895884,9.73149 4.3866992,9.6653146 4.2859688,9.59498 4.172464,9.5466292 c -0.010152,-3e-4 -0.00829,-0.00155 -0.015986,0.015891 -0.00335,0.00758 -0.00686,0.015749 -0.00639,0.024021 2.38e-4,0.00416 0.02891,0.02326 0.036914,0.029809 0.055112,0.048064 0.1115406,0.09447 0.1694636,0.1390982 0.073776,0.056875 0.1508442,0.1091338 0.230635,0.157139 0.15371,0.085293 0.302436,0.1820976 0.4625986,0.2557826 0.071387,0.03126 0.1447754,0.05761 0.2191902,0.08062 0.06482,0.01803 0.12975,0.03599 0.1952934,0.05123 0.046717,0.01194 0.093011,0.01188 0.1394134,-3.1e-4 0.054878,-0.01763 0.09757,-0.05705 0.139319,-0.09506 0.056179,-0.05294 0.101781,-0.115547 0.1448154,-0.179265 0.041007,-0.063823 0.073244,-0.1327176 0.1013734,-0.2030166 0.017235,-0.044893 0.036236,-0.089109 0.050554,-0.1350536 0.00566,-0.01815 0.00883,-0.036844 0.010027,-0.055779 5.98e-4,-0.014256 -6e-5,-0.028527 -2e-4,-0.042788 2.38e-4,-0.017056 -2.32e-4,-0.034074 -9e-4,-0.05111 C 5.764619,9.386842 5.818178,9.3330792 5.660243,9.4842088 5.606385,9.5372328 5.555712,9.5933824 5.5056346,9.6499548 c -0.029753,0.03167 -0.055674,0.066542 -0.08264,0.1005272 -0.076669,0.1041902 -0.00688,0.054321 0.2503534,0.1640756 0.00595,0.00254 0.00605,-0.011431 0.00908,-0.017146 C 5.7244056,9.8187104 5.760943,9.7372926 5.797544,9.656004 5.8517902,9.5301268 5.8996732,9.4015594 5.94629,9.2726878 5.976658,9.189577 6.0004456,9.1043422 6.0242436,9.0191906 6.0408992,8.968212 6.0510266,8.9166176 6.0502396,8.8630082 6.040519,8.762147 6.0053996,8.6658824 5.972977,8.5705622 5.9395572,8.4728154 5.9050834,8.375438 5.8723838,8.2774462 5.8573326,8.231101 5.842211,8.1847736 5.8238312,8.1396248 5.810653,8.1061604 5.7858988,8.0827232 5.7573836,8.0621894 5.64343,7.9641212 5.5258638,7.926629 5.4009388,7.869202 5.3779338,7.859682 5.3539478,7.853269 5.3291358,7.851328 c -0.025091,-0.00292 -0.034078,0.022118 -0.03167,0.043294 0.01104,0.037069 0.03268,0.070028 0.052611,0.1028398 0.023479,0.038902 0.049291,0.076306 0.073714,0.114604 0.015437,0.025471 0.030132,0.051343 0.047572,0.075518 0.034582,0.04206 0.076174,0.077978 0.1153208,0.115701 0.07729,0.074821 0.1528338,0.151413 0.2279936,0.2283648 0.042834,0.044559 0.086716,0.088147 0.128213,0.1339692 0.017703,0.019579 0.034438,0.040027 0.052529,0.059253 0.00924,0.020475 0.023246,0.00583 0.010545,-0.00342 -0.050581,-0.011747 -0.09569,-0.038485 -0.13999,-0.064527 C 6.2709806,8.897011 6.064543,8.775026 5.9828634,8.7101378 5.934453,8.6716796 5.89006,8.6292452 5.8457678,8.5862274 5.7940872,8.5352828 5.747147,8.4798938 5.697533,8.4270082 5.605421,8.3249204 5.5303406,8.3115066 5.3756156,8.2261448 5.307985,8.2417042 5.2533658,8.291906 5.1995472,8.3328598 5.0765336,8.4300204 4.947648,8.5188036 4.8124032,8.5979532 c -0.095571,0.05512 -0.19771,0.096299 -0.3023698,0.130297 -0.047625,0.014175 -0.094971,0.029137 -0.140678,0.048701 -0.018622,0.00833 -0.03773,0.015209 -0.05817,0.016562 -0.0077,-0.00128 -0.00841,-0.0052 -0.010426,-0.01215 0.083438,0.049016 0.166334,0.098967 0.250314,0.1470484 0.00758,0.00434 -0.01117,-0.013472 -0.016054,-0.020714 C 4.5013344,8.8521882 4.484797,8.7889764 4.4693236,8.726551 4.4503288,8.6433992 4.4440272,8.5582148 4.4405938,8.4732208 4.4374674,8.4241598 4.4427162,8.3747268 4.4360594,8.3259404 4.4058568,8.2097798 4.3062326,8.2235542 4.1540844,8.1537622 4.147161,8.1505864 4.099233,8.198906 4.0950872,8.2031466 4.0246652,8.283163 3.975213,8.3778572 3.9305852,8.4738594 3.8796624,8.5890216 3.8486238,8.7109684 3.8220906,8.833597 c -0.016369,0.076877 -0.025243,0.1549804 -0.029601,0.233374 -0.00471,0.051175 7.94e-4,0.099599 0.020588,0.1468972 0.047514,0.083744 0.1223344,0.147808 0.1940254,0.2103396 0.1097682,0.093507 0.228747,0.1748778 0.3524476,0.2486114 0.223833,0.1448944 0.4574274,0.2545592 0.7142806,0.3196154 0.1376134,0.030536 0.2782692,0.030875 0.4181026,0.021235 0.1022386,-0.0103 0.1631648,-0.026674 0.23666,-0.099878 C 5.8086972,9.8100368 5.8310574,9.678068 5.8522252,9.5520498 5.8724264,9.413612 5.8792116,9.2737912 5.8755846,9.1340596 5.87222,9.0462284 5.86154,8.9588916 5.8425038,8.8731128 5.8267256,8.8067342 5.8012336,8.7434268 5.7726264,8.6816924 5.75033,8.6352474 5.7280704,8.5887518 5.7041672,8.543106 5.6912726,8.5186336 5.6766838,8.495255 5.6564442,8.4762564 5.6400802,8.4627838 5.6237614,8.4492824 5.6077234,8.4354212 5.5887392,8.4164326 5.57394,8.3937208 5.5600498,8.3708738 5.5478638,8.3485976 5.5344978,8.3270788 5.5191792,8.30683 5.5081066,8.296285 5.5017346,8.2830132 5.4943526,8.269991 5.475547,8.2478078 5.4660552,8.2199304 5.455422,8.1932846 5.440098,8.1516286 5.423656,8.1103586 5.409482,8.0682908 5.403762,8.0504378 5.398829,8.0322638 5.39633,8.0136558 c -0.01059,0.021427 0.011613,0.025875 0.027169,0.033218 0.027376,0.013077 0.054359,0.026953 0.081346,0.040808 0.119324,0.067206 -0.3483082,-0.1993726 -0.2042786,-0.1166698 0.088454,0.050791 0.177062,0.101311 0.265593,0.1519664 0.086968,0.02233 0.3406152,0.1916526 -0.215138,-0.1290924 0.016559,0.012101 0.031624,0.026174 0.045909,0.040857 0.00386,0.0061 0.015439,0.013201 0.00826,0.019361 C 5.3712874,8.071674 5.3328654,8.080073 5.2960112,8.089221 5.2013812,8.113416 5.1045102,8.127046 5.00795,8.14086 4.916662,8.153734 4.8249714,8.163343 4.7340632,8.178823 c -0.050092,0.00785 -0.097062,0.020991 -0.1336836,0.057169 -0.037843,0.049188 -0.036253,0.1132046 -0.03619,0.1723006 0.00313,0.097716 0.013829,0.194984 0.027103,0.2917794 0.00867,0.06164 0.020322,0.1228302 0.038031,0.1825268 0.01031,0.038918 0.028794,0.072356 0.054399,0.1030402 0.061673,0.064569 0.1375738,0.113222 0.2112352,0.1627628 0.2181884,0.140372 0.4437862,0.2694602 0.6771332,0.3828414 0.103086,0.048126 0.209778,0.087711 0.3173614,0.1244142 0.039051,0.014651 0.079104,0.026658 0.1206008,0.031517 0.02329,0.00408 0.037282,-0.00531 0.052231,-0.022218 0.025262,-0.037184 0.032805,-0.083151 0.041717,-0.1263642 0.016178,-0.084947 0.017967,-0.1713644 0.01503,-0.25749 -0.00403,-0.070009 -0.012876,-0.1396504 -0.021844,-0.2091696 -0.00368,-0.036584 -0.010544,-0.072704 -0.017513,-0.108771 -0.00413,-0.019639 -0.008,-0.039157 -0.016851,-0.057268 C 6.0519468,8.8846 6.0333862,8.871033 6.013844,8.8583408 5.9186576,8.7668128 5.7902138,8.7329466 5.6795324,8.6685952 6.3199732,9.0387754 5.642008,8.6413198 5.6235592,8.6390142 c -0.027058,0.00676 -0.028087,0.042591 -0.029048,0.064965 -0.00134,0.058233 -0.010463,0.115915 -0.020077,0.1732458 -0.013395,0.069186 -0.02589,0.1385044 -0.034388,0.2084738 -0.00412,0.036012 -0.00621,0.072224 -0.00699,0.108452 2.96e-4,0.037466 7.66e-4,0.074836 -0.00114,0.1122686 -0.00468,0.066408 -0.01619,0.1320626 -0.026784,0.1977128 -0.00825,0.048624 -0.014074,0.097604 -0.017295,0.146809 -0.00161,0.022827 -0.00181,0.045704 -0.00228,0.06857 -0.0033,0.1050464 -0.1359666,-0.042172 0.2675346,0.1290704 0.0039,0.00165 -0.00396,-0.00749 -0.00586,-0.01127 -0.00199,-0.00397 -0.01319,-0.027182 -0.014514,-0.029923 C 5.7069834,9.754757 5.674912,9.7055168 5.6435948,9.656112 5.5486828,9.5104126 5.455689,9.3636398 5.3671672,9.2139622 5.276051,9.0554798 5.1895302,8.894395 5.1047242,8.732464 5.0699086,8.6659018 5.034757,8.5995162 4.9999848,8.532931 4.9691492,8.4731912 4.9357132,8.4148588 4.9027748,8.3562694 4.8734116,8.3048688 4.8445776,8.2532 4.8175508,8.2005294 4.8033476,8.1714994 4.7880064,8.1430732 4.7693428,8.1166616 4.6984096,8.0225746 4.5807456,7.9469036 4.4623134,7.9431266 4.4461488,7.9356354 4.432538,7.926929 4.4144206,7.9235626 c -0.044688,-0.00637 -0.089466,-0.00238 -0.1340272,0.00264 -0.067881,0.00857 -0.1353892,0.019622 -0.2010394,0.039075 -0.056851,0.017167 -0.1052568,0.047369 -0.1451136,0.090971 -0.050772,0.068276 -0.066311,0.1556194 -0.083814,0.2371506 -0.01264,0.060551 -0.021106,0.1218686 -0.025354,0.1835584 -0.00138,0.02831 -0.00314,0.056671 -1.4e-4,0.084911 0.010025,0.046969 0.036937,0.088462 0.061174,0.129226 0.00618,0.010023 0.012362,0.020046 0.018544,0.030069 0,0 0.2717196,0.1199026 0.2717196,0.1199026 v 0 C 4.1702,8.8312462 4.164037,8.8214292 4.157871,8.8116102 4.134962,8.7734292 4.111448,8.7353282 4.094966,8.6937934 4.088496,8.6677244 4.090946,8.6408334 4.090986,8.6141724 4.093036,8.5533274 4.099126,8.4926754 4.110733,8.4328588 4.126236,8.3565798 4.140223,8.2743364 4.189027,8.211365 4.226764,8.172808 4.272575,8.1478 4.3247072,8.133429 4.3896022,8.116082 4.4560454,8.105472 4.5228986,8.099052 c 0.043065,-0.00297 0.087675,-0.00561 0.129236,0.00844 0.016677,0.00763 0.032188,0.016584 0.051163,0.01622 C 4.8350352,8.162335 4.3630914,7.9204492 4.493026,7.9983188 c 0.021009,0.024024 0.038264,0.050746 0.052386,0.0794 0.027255,0.053351 0.05595,0.1058868 0.086397,0.1574922 0.032529,0.058244 0.06581,0.116088 0.096475,0.1753504 0.035385,0.067969 0.072738,0.1348702 0.1096138,0.2020348 0.088309,0.1625212 0.177891,0.3243628 0.2686536,0.485525 0.085863,0.1481126 0.1754404,0.2938496 0.266595,0.438753 0.029879,0.04824 0.059645,0.096621 0.086868,0.1464246 0.037219,0.08043 0.259368,0.4800192 0.2939864,0.172898 -6e-4,-0.022622 -4.76e-4,-0.045267 4e-5,-0.067888 0.00181,-0.048565 0.00605,-0.097008 0.013854,-0.1450074 0.010499,-0.066406 0.021732,-0.1327586 0.028792,-0.1996422 0.00331,-0.037575 0.00472,-0.075139 0.00396,-0.1128646 -1.4e-4,-0.035677 3.42e-4,-0.071375 0.00352,-0.1069386 0.00654,-0.069786 0.017961,-0.138848 0.032104,-0.207494 0.010454,-0.058038 0.021275,-0.1161846 0.024965,-0.175143 3.84e-4,-0.010495 0.00203,-0.02844 6.76e-4,-0.028682 -0.00315,-5.62e-4 -0.00426,0.00567 -0.00375,0.00883 2.22e-4,0.0014 0.00199,0.00201 0.00299,0.00301 0.083951,0.058601 0.012924,0.0088 -0.2451782,-0.1406254 -0.00284,-0.00165 0.00596,0.00278 0.00882,0.0044 0.00857,0.00485 0.011825,0.00767 0.019903,0.013644 0.089276,0.05213 0.1790172,0.1034586 0.2685258,0.1551878 0.1010792,0.052255 0.2653604,0.148352 -0.179577,-0.1066338 0.018528,0.010052 0.038743,0.019262 0.053497,0.034602 0.012549,0.014154 0.018981,0.029124 0.021998,0.047987 0.00947,0.035082 0.015218,0.071297 0.020397,0.1072158 0.010179,0.069078 0.020345,0.1382652 0.025773,0.2079064 0.00389,0.0836 0.00294,0.1675208 -0.013467,0.2499526 -0.00808,0.036813 -0.014123,0.07783 -0.036015,0.1093876 -0.010563,0.00752 -0.024172,2.08e-4 -0.036178,-6.1e-4 C 5.7305664,9.4991038 5.6928146,9.48651 5.6552488,9.4734578 5.5499022,9.4376542 5.4455832,9.3985296 5.3452668,9.350135 5.2859424,9.3209644 5.2591704,9.308409 5.2001682,9.2768406 5.174746,9.2632388 5.0997186,9.2202066 5.1244404,9.2350434 5.4845208,9.4511456 5.2447766,9.3031494 5.1672544,9.2550022 5.0956238,9.2072698 5.0226424,9.1601892 4.9595174,9.1012578 4.9325478,9.0746956 4.9105078,9.0470586 4.8998294,9.0099298 4.8793688,8.9516904 4.8661154,8.891406 4.8565962,8.8304422 4.8418554,8.7351398 4.8302906,8.639205 4.828044,8.5426916 c -6e-5,-0.049496 -0.00446,-0.107653 0.027292,-0.1491752 0.034067,-0.029123 0.078864,-0.036076 0.1217316,-0.04434 0.090001,-0.015367 0.1807326,-0.02566 0.2710384,-0.039027 0.098067,-0.014183 0.1963262,-0.028417 0.292647,-0.052125 0.04205,-0.010595 0.08908,-0.018712 0.122368,-0.048525 0.01345,-0.017374 0.020031,-0.03404 0.00998,-0.054925 C 5.662614,8.1349884 5.64595,8.1203634 5.629971,8.1052124 5.5005256,8.0285546 5.4394544,7.9791096 5.331208,7.934778 5.9136108,8.2703052 5.3678136,7.955432 5.270734,7.9001198 5.2434574,7.8863332 5.2161424,7.872576 5.1881374,7.860312 c -0.024818,-0.010431 -0.0446,-0.017598 -0.058486,0.012687 -0.00553,0.022851 0.00287,0.045829 0.00882,0.067868 0.013691,0.042705 0.031167,0.084014 0.045609,0.12647 0.010307,0.027889 0.019554,0.056927 0.033664,0.083022 0.011014,0.011497 0.015382,0.025973 0.024733,0.038712 0.01651,0.018392 0.031748,0.037864 0.043492,0.059721 0.01334,0.024498 0.02775,0.048225 0.044238,0.070739 0.013383,0.017136 0.030502,0.030828 0.047571,0.044174 0.021604,0.016021 0.04053,0.032577 0.053117,0.057165 0.026139,0.044565 0.047755,0.09156 0.071096,0.1376134 0.028836,0.060196 0.056063,0.1213668 0.073091,0.1861398 0.021391,0.084204 0.032905,0.1704642 0.038519,0.2571354 0.00641,0.1383104 0.0018,0.2768882 -0.018038,0.4140962 C 5.5755784,9.5353052 5.5545534,9.6615808 5.4763648,9.758512 5.4081448,9.821321 5.3444,9.834537 5.2533328,9.842735 5.1157372,9.851665 4.9775198,9.848965 4.8428868,9.815475 4.7661842,9.794932 4.6912814,9.7721214 4.6172552,9.743114 4.5904056,9.7325928 4.5637404,9.7215802 4.537347,9.709962 4.5105906,9.6981842 4.4340962,9.6558896 4.4578416,9.6729418 4.5125648,9.7122402 4.5732722,9.7424528 4.6309874,9.7772082 4.5070584,9.7058658 4.3883488,9.6260322 4.2784766,9.534237 4.208316,9.474704 4.1373336,9.413394 4.0847576,9.3371154 4.060904,9.2952596 4.0537596,9.2515344 4.0574258,9.203387 4.0597358,9.125911 4.0661858,9.0485596 4.0811678,8.97239 4.1055118,8.8514468 4.1347058,8.7311182 4.185316,8.6180334 4.228974,8.5255644 4.277103,8.4337196 4.348713,8.3593878 c 0.010424,-0.00918 0.022816,-0.022432 0.036752,-0.027537 0.00353,-0.00129 0.014492,0.00134 0.011273,-6.14e-4 C 4.314566,8.2814708 4.229189,8.2371338 4.146986,8.187419 c -0.00329,-0.00199 0.008,-0.00179 0.011525,-2.58e-4 0.00347,0.00151 0.00501,0.00567 0.00752,0.00851 0.015028,0.046068 0.00379,0.096409 0.00948,0.143943 0.00412,0.086702 0.01044,0.1735396 0.027401,0.2588268 0.014131,0.063885 0.028783,0.128369 0.058017,0.1873748 0.052582,0.1044954 0.1806754,0.2140494 0.2970414,0.1805902 0.020967,-0.00563 0.040832,-0.014324 0.060642,-0.02311 C 4.6634062,8.9248 4.7094958,8.9099086 4.7554096,8.89448 4.8596358,8.857226 4.961022,8.812584 5.0563556,8.7559514 5.191569,8.6745572 5.320597,8.5840966 5.4471636,8.4898588 5.4856994,8.4626982 5.5613242,8.3951088 5.613605,8.4097612 5.5308986,8.36224 5.4478354,8.3153342 5.3654856,8.2671974 c -0.00324,-0.00189 0.00724,0.00208 0.010606,0.00373 0.018521,0.0091 0.029777,0.028701 0.045584,0.041259 0.052394,0.05268 0.100626,0.1092532 0.1529092,0.1620594 0.1678558,0.165373 0.293614,0.2550582 0.5213958,0.368527 0.047447,0.025641 0.099332,0.057382 0.1553854,0.053082 0.02277,-0.010475 0.035954,-0.03043 0.020898,-0.053178 C 6.256332,8.8207688 6.235446,8.8027568 6.2186,8.7815368 6.1765094,8.7343848 6.1315676,8.689979 6.0873094,8.6448726 6.0116794,8.5681742 5.935907,8.4916118 5.8593618,8.4158252 5.8221496,8.379095 5.7847892,8.342425 5.7476092,8.305728 5.7281072,8.283463 5.7118714,8.2588128 5.6976816,8.2328368 5.6738336,8.1940286 5.6472004,8.1570848 5.623388,8.1182512 5.604305,8.0875352 5.585198,8.0567502 5.569108,8.0243242 c -0.00722,-0.013292 -0.024487,0.00607 9.38e-4,0.00765 0.022719,0.00537 0.044625,0.013527 0.065733,0.023497 C 5.7417952,8.1020914 5.92901,8.195927 5.477979,7.953822 5.506598,7.969096 5.533977,7.98657 5.55132,8.01483 5.572626,8.05887 5.587949,8.105453 5.603932,8.1516096 5.638302,8.2499616 5.674294,8.3477368 5.707987,8.4463254 5.739458,8.5384644 5.772525,8.6313966 5.784054,8.728589 5.787134,8.779473 5.777774,8.828557 5.762902,8.8772454 5.740824,8.9624244 5.719092,9.0477884 5.69013,9.1309674 5.645418,9.2596338 5.598479,9.3876468 5.5421966,9.5117902 c -0.03711,0.080041 -0.074259,0.160287 -0.119304,0.236267 -0.070928,0.1204224 0.2142192,0.2641578 0.2579552,0.155952 0.025683,-0.034086 0.050642,-0.068776 0.079478,-0.1003442 0.048616,-0.056449 0.098228,-0.1122324 0.152186,-0.163675 0.024348,-0.022147 0.048414,-0.045085 0.076928,-0.061964 0.00534,-0.00316 0.010951,-0.00593 0.016775,-0.00807 0.00429,-0.00158 0.017239,-5.54e-4 0.013389,-0.00303 C 5.9385658,9.51491 5.8540998,9.46844 5.7713478,9.4191968 c 0.015584,-0.005 0.00863,0.023766 0.00986,0.033264 4e-5,0.013902 -2e-4,0.027809 3.04e-4,0.041706 2.26e-4,0.016759 -8.72e-4,0.033456 -0.00521,0.049743 -0.011972,0.045811 -0.030334,0.089479 -0.046636,0.1338574 -0.02701,0.068542 -0.057008,0.136044 -0.097716,0.1977556 -0.041584,0.061824 -0.085978,0.1224452 -0.1415778,0.1725782 -0.039325,0.03436 -0.079767,0.06983 -0.1323392,0.08098 -0.044225,0.0066 -0.087617,0.002 -0.130793,-0.0097 C 5.1626836,10.10346 5.098175,10.087073 5.0346092,10.067479 4.960837,10.043302 4.8878578,10.016404 4.8175032,9.98344 4.7119538,9.9320178 4.4249166,9.7703464 4.8626938,10.018681 4.782405,9.9721708 4.704775,9.9213874 4.6310696,9.8649204 4.573778,9.821587 4.5175704,9.7769066 4.4642656,9.7286952 c -0.01003,-0.009 -0.033331,-0.030239 -0.034274,-0.029712 -0.00209,0.00117 -0.027701,0.031436 -0.021896,0.035545 0.090292,0.049147 -0.00895,-0.00481 -0.2444716,-0.1413566 -0.00303,-0.00176 0.00631,0.00307 0.00933,0.00484 0.01309,0.00768 0.024386,0.017894 0.037515,0.025524 0.04877,0.029999 0.098244,0.058877 0.1457596,0.090891 0.1567618,0.09786 0.3158774,0.1989158 0.489626,0.2643518 0.068569,0.019912 0.1380168,0.029741 0.209237,0.017586 C 5.1162346,9.9864744 5.176832,9.9733324 5.23651,9.9566934 5.4050848,9.9043224 5.318143,9.8774784 5.0709706,9.745794 5.0522476,9.756846 5.0327316,9.766587 5.0149876,9.779305 4.9767366,9.802741 4.9387636,9.826621 4.9023694,9.852897 c -0.1442796,0.1026726 -0.091166,0.062678 0.16632,0.239725 0.00328,0.0023 0.00595,-0.0053 0.00892,-0.0079 0.025915,-0.01317 0.049974,-0.02944 0.074364,-0.04519 0.034838,-0.02315 0.068986,-0.047364 0.1046536,-0.069237 0.098966,-0.055573 0.00254,0.00343 -0.2394674,-0.1583998 -0.00402,-0.00269 0.00518,-0.00817 0.00775,-0.012262 0.00331,-0.00526 -0.014183,0.020239 -0.011613,0.014581 -0.016066,0.017431 -0.031585,0.035664 -0.038785,0.05874 0.2544036,0.1634448 0.190059,0.2234798 0.3175578,0.1181026 0.058106,-0.046117 0.117711,-0.090273 0.1786992,-0.1325166 0.067242,-0.045817 0.1355266,-0.093496 0.2144322,-0.1167906 0.013968,-0.00269 0.025747,-0.00637 0.039979,-0.00451 0.00413,5.4e-4 0.015429,0.00613 0.011864,0.00396 -0.082181,-0.04985 -0.166347,-0.096413 -0.2479648,-0.1471798 -0.00252,-0.00157 0.00584,-0.00215 0.00876,-0.00161 0.00185,3.44e-4 0.00267,0.00265 0.00401,0.00398 -8e-5,0.036292 -0.024664,0.068126 -0.037331,0.1007898 C 5.431634,9.7660136 5.39728,9.834168 5.3611334,9.901348 c -0.034977,0.06254 -0.073668,0.123713 -0.099345,0.190862 -0.031899,0.120407 -0.015133,0.0291 0.2539804,0.188136 0.003,0.0018 0.048289,-0.03949 0.052319,-0.04521 0.050651,-0.05518 0.099186,-0.11229 0.1509422,-0.16647 C 5.791628,9.990223 5.8659584,9.9133596 5.9366444,9.833172 5.9406844,9.828292 5.9990794,9.757768 5.9943414,9.753782 5.6755392,9.4855646 5.8481768,9.5739136 5.7318288,9.5786168 c -0.023102,0.00109 -0.046169,0.00275 -0.06923,0.00449 -0.037468,0.00265 -0.074955,0.00292 -0.1125116,0.00245 -0.035766,-4e-5 -0.071537,2.8e-6 -0.107297,-7.06e-4 -0.012556,-2.8e-4 -0.025145,-6.32e-4 -0.037682,3.46e-4 -0.015761,0.00166 -0.031106,0.00542 -0.045841,0.011346 -0.029903,0.011833 -0.058942,0.025797 -0.089351,0.036369 -0.039506,0.014028 -0.079232,0.027431 -0.118909,0.040968 -0.032037,0.010765 -0.064053,0.021764 -0.096773,0.030307 -0.020468,0.00494 -0.040998,0.00996 -0.060894,0.016893 -0.03054,0.012111 -0.060101,0.026524 -0.090603,0.038741 -0.043066,0.018058 -0.085799,0.037105 -0.125479,0.061958 -0.031294,0.019019 -0.062749,0.037693 -0.094889,0.055245 -0.011939,0.00773 -0.023149,0.018034 -0.03704,0.021853 -0.010706,0.00416 -0.022402,0.00689 -0.03073,0.015366 -0.010352,0.012922 -0.018305,0.028066 -0.0095,0.04404 0.116849,0.070169 0.178634,0.1415522 0.2888994,0.1647172 0.022806,0.004 0.044077,0.01408 0.065937,0.02136 0.038709,0.01508 0.07698,0.03127 0.1161368,0.0452 0.03626,0.01425 0.071712,0.03029 0.1077654,0.04495 0.012548,0.0036 0.024469,0.0013 0.037371,0.0016 0.012456,-1.2e-4 0.024955,-6.16e-4 0.037116,-0.0036 0.022803,-0.0058 0.044582,-0.01461 0.0663,-0.02354 0.043536,-0.01687 0.088018,-0.03103 0.1320016,-0.04667 0.0708,-0.02578 0.1407164,-0.05407 0.2070368,-0.0901 0.069233,-0.03772 0.1378146,-0.076727 0.2019896,-0.122734 0.055702,-0.039781 0.1109044,-0.081213 0.1545694,-0.1345416 0.024771,-0.029921 0.048387,-0.060971 0.064003,-0.09684 0.011505,-0.024241 0.023356,-0.048468 0.031708,-0.074023 0.00468,-0.017199 0.00499,-0.034104 0.00419,-0.051885 1.1e-5,-0.018502 3.76e-4,-0.037 2.82e-4,-0.055502 -2.44e-4,-0.027776 -0.00144,-0.055536 -0.00452,-0.083161 -0.0062,-0.049413 -0.016942,-0.097798 -0.030596,-0.1456922 -0.012632,-0.052285 -0.025195,-0.104589 -0.038405,-0.1567314 -0.00835,-0.032225 -0.019136,-0.063732 -0.026749,-0.096132 -0.00683,-0.026338 -0.00926,-0.053254 -0.00817,-0.080461 3.6e-6,-0.027545 1.2e-5,-0.055091 -6.2e-6,-0.082636 -1.64e-5,-0.02267 3.88e-4,-0.045336 3.68e-4,-0.068006 -2.42e-4,-0.025418 -5.76e-4,-0.050835 -5.74e-4,-0.076255 1.6e-4,-0.038982 -10e-5,-0.077966 -1.8e-4,-0.1169486 C 6.011181,8.5917902 6.010931,8.5527842 6.005903,8.5141854 6.001474,8.4874594 5.9939966,8.4617312 5.9828312,8.437028 5.9777508,8.4230552 5.9680056,8.4130702 5.9615912,8.399782 5.949466,8.3828546 5.931127,8.3725574 5.9170496,8.3573278 5.8893038,8.3327826 5.859786,8.3105626 5.8300312,8.2885326 5.7909788,8.257427 5.7497006,8.2293806 5.7096052,8.1996536 5.6813058,8.1787036 5.6511282,8.1599784 5.6253076,8.1358692 5.6016148,8.1221248 5.4376498,7.9852074 5.3312932,7.9769228 c -0.018485,-0.00371 -0.036993,-0.00677 -0.055911,-0.00714 -0.033429,-0.00216 -0.066873,-0.00243 -0.1003664,-0.00223 -0.020016,-2.06e-4 -0.040033,-2.9e-4 -0.06005,-4.08e-4 -0.01437,10e-5 -0.028739,3.84e-4 -0.043095,0.00108 -0.02712,0.00131 -0.054207,0.00314 -0.081273,0.00529 -0.032411,0.00187 -0.064868,0.00113 -0.097319,0.00112 -0.017924,-10e-5 -0.036088,6.3e-4 -0.053814,-0.00242 C 4.7477766,7.9438478 4.5586856,7.7239504 5.062829,8.1037422 4.9585094,8.0405398 4.855158,7.9745466 4.7460174,7.9193294 c -0.020718,-0.0107 -0.041268,-0.02262 -0.063617,-0.029524 -0.010573,-5.38e-4 -0.021279,0.00129 -0.031814,0.00259 -0.017347,0.00413 -0.032996,0.012228 -0.04715,0.023103 -0.031404,0.024172 -0.061048,0.050608 -0.093527,0.073408 -0.1281142,0.095394 -0.1489858,0.015585 0.1675296,0.2108182 0.017896,-0.017944 0.040441,-0.030403 0.060784,-0.045252 0.1199244,-0.084119 0.1470154,3.2e-4 -0.192492,-0.1784158 0.017884,-0.019 0.00618,0.012318 0.00382,0.02073 -0.00761,0.015483 -0.019949,0.027752 -0.027603,0.043238 -0.00529,0.012209 -0.00674,0.025738 -0.015261,0.036451 -0.016026,0.021353 -0.032678,0.042245 -0.047073,0.064787 -0.022559,0.032022 -0.048396,0.061509 -0.070359,0.093961 -0.00171,0.00266 -0.028872,0.043275 -0.026006,0.045461 0.4242558,0.3235776 0.1524076,0.2038884 0.262017,0.1671938 0.021116,-0.00453 0.039815,-0.0157 0.058605,-0.025909 C 4.72996,8.3972476 4.776772,8.3738846 4.822941,8.3493116 4.9188952,8.2990832 5.015616,8.250307 5.112465,8.2018372 5.1854698,8.166518 5.258081,8.1295254 5.3344748,8.1019556 5.1545974,7.9692838 5.1834522,7.9069824 5.0623892,7.931237 5.0239402,7.940057 4.9868072,7.953249 4.9499348,7.967159 4.8779258,7.992447 4.8054084,8.016516 4.7351538,8.046482 4.6702478,8.074906 4.6051486,8.103933 4.5462104,8.143711 4.4883844,8.184831 4.4342874,8.230847 4.3824956,8.2793302 4.3303106,8.3293162 4.2804002,8.3816098 4.227525,8.4308826 c -0.035944,0.032615 -0.07198,0.067203 -0.1157116,0.089145 -0.00956,0.00339 -0.015856,0.00667 -0.025994,0.00674 -0.00318,2e-5 -0.012105,-0.00326 -0.00941,-0.00156 0.081993,0.051642 0.166254,0.099642 0.2479282,0.1517866 0.00176,0.00112 -0.00342,0.00318 -0.00549,0.003 -0.0012,-10e-5 -4.56e-4,-0.00236 -6.84e-4,-0.00354 0.00821,-0.029874 0.030488,-0.053931 0.044211,-0.081199 0.031779,-0.052949 0.066162,-0.1042594 0.098379,-0.1569424 0.031888,-0.052481 0.063101,-0.1056092 0.088736,-0.1614826 0.049918,-0.1274662 -0.1969772,-0.2708352 -0.2708,-0.163423 -0.020016,0.023269 -0.03857,0.047701 -0.05641,0.072674 -0.030334,0.041153 -0.060251,0.082854 -0.094669,0.120733 -0.1265146,0.1286882 -0.1639888,0.015131 0.1641354,0.2210786 -0.016118,0.016003 0.028871,-0.033639 0.030332,-0.033346 0.025974,-0.026062 0.052518,-0.05174 0.082338,-0.073441 0.026619,-0.018429 0.054799,-0.03773 0.087334,-0.043218 0.1047772,0.012514 9.94e-4,0.00124 -0.2418768,-0.1477774 -0.00202,-0.00124 0.00986,-0.00488 0.00932,0.00688 -1.6e-4,0.00344 -0.00107,0.0068 -0.00161,0.0102 -0.012228,0.043327 -0.029595,0.084837 -0.044956,0.1270992 -0.011006,0.030536 -0.023494,0.060992 -0.030401,0.092752 -2.16e-4,0.012427 -0.00373,0.0232 -0.011158,0.033411 -0.01705,0.024478 -0.034298,0.048799 -0.050061,0.074154 -0.026649,0.038174 -0.054628,0.075459 -0.082938,0.112405 -0.013643,0.016094 -0.049424,0.066812 -0.073692,0.056286 0.083137,0.048489 0.1668522,0.096001 0.2494124,0.1454666 0.00294,0.00176 -0.00707,-4.32e-4 -0.010078,-0.00207 -0.017535,-0.00954 -0.015089,-0.038104 -0.018184,-0.054154 -0.00321,-0.042555 -0.00827,-0.084873 -0.017793,-0.1265356 -0.00126,-0.00518 -0.00748,-0.031979 -0.00884,-0.032844 C 4.1110664,8.642674 3.9275026,8.4259184 3.8672334,8.5472888 3.853518,8.5914736 3.8542126,8.638278 3.8463042,8.683628 c -0.012823,0.093635 -0.02352,0.1876734 -0.026242,0.2822226 -0.003,0.127498 0.00128,0.2549146 0.00466,0.3823746 0.00225,0.1129732 0.00482,0.2265198 -0.010667,0.3387842 -0.023644,0.1269326 -0.013845,0.026584 0.255312,0.185058 0.00159,9.36e-4 -0.00161,-0.0034 -0.00181,-0.00523 -0.00179,-0.015977 0.00144,-0.032453 4.92e-4,-0.048435 0.00296,-0.076179 0.010218,-0.1520634 0.019302,-0.2277472 C 4.104614,9.4351828 4.1174722,9.2791872 4.1235722,9.1228568 4.1251562,9.020021 4.1285102,8.9147396 4.1032928,8.81419 4.0612152,8.7016298 3.8877286,8.560245 3.7971016,8.6551556 c -0.012803,0.015679 -0.024729,0.032514 -0.032556,0.051268 -0.011485,0.034577 -0.013107,0.071215 -0.018437,0.107053 -0.00756,0.049504 -0.017059,0.099454 -0.01394,0.1497398 0.00306,0.044444 0.00785,0.088923 0.023649,0.130962 0.013113,0.03991 0.025981,0.080197 0.045406,0.1175908 0.025188,0.043101 0.060708,0.077637 0.093791,0.1146992 0.065136,0.072814 0.13189,0.1441534 0.1996874,0.214498 0.074199,0.074294 0.1502504,0.1467008 0.2295392,0.2155742 0.090023,0.073188 0.2388368,0.2639084 0.3190384,0.1543404 0.00817,-0.018944 -0.00146,-0.02745 -0.012776,-0.04281 C 4.6178176,9.846403 4.6023336,9.827143 4.5862756,9.807898 4.5769656,9.794269 4.5692296,9.779693 4.5565926,9.768689 4.5501626,9.761039 4.5479726,9.751163 4.5411376,9.743791 4.5296206,9.737211 4.5183996,9.729061 4.5082746,9.720519 4.4970256,9.710022 4.4835506,9.702611 4.4717746,9.692736 4.4492826,9.670887 4.4327056,9.644086 4.4155346,9.618039 4.3874426,9.578705 4.3563546,9.54161 4.3268536,9.5033388 c -0.025984,-0.030894 -0.0531,-0.060837 -0.07727,-0.093213 -0.00707,-0.00721 -0.020366,-0.012088 -0.02096,-0.021974 -1.4e-4,-0.012481 -2.1e-4,-0.024963 -3.96e-4,-0.037443 -3.52e-4,-0.024746 -7.02e-4,-0.049499 -8e-5,-0.074244 0.00113,-0.038626 0.0031,-0.077378 0.010824,-0.1153464 0.00704,-0.032379 0.015365,-0.064471 0.020231,-0.09729 0.00231,-0.018073 0.0036,-0.035916 0.00283,-0.054181 5.82e-4,-0.022884 0.00215,-0.045753 0.00633,-0.0683 0.00561,-0.028409 0.011972,-0.056628 0.019645,-0.084554 0.00495,-0.017849 0.00942,-0.035602 0.00785,-0.054288 -2e-4,-0.011773 -5.62e-4,-0.023543 -7.2e-4,-0.035316 2.04e-4,-0.022306 0.00347,-0.044328 0.00999,-0.065715 0.016453,-0.052489 0.037975,-0.1030808 0.059941,-0.1534686 0,0 -0.2614474,-0.1458984 -0.2614474,-0.1458984 z" />
</svg>
