<?xml version="1.0" encoding="UTF-8" standalone="no"?>
<svg
   id="_2"
   data-name="2"
   viewBox="0 0 913.19 932.61"
   version="1.1"
   sodipodi:docname="friends_AR.svg"
   inkscape:export-filename="friends_AR2.svg"
   inkscape:export-xdpi="96"
   inkscape:export-ydpi="96"
   inkscape:version="1.2.2 (b0a8486, 2022-12-01)"
   xmlns:inkscape="http://www.inkscape.org/namespaces/inkscape"
   xmlns:sodipodi="http://sodipodi.sourceforge.net/DTD/sodipodi-0.dtd"
   xmlns="http://www.w3.org/2000/svg"
   xmlns:svg="http://www.w3.org/2000/svg">
  <sodipodi:namedview
     id="namedview50"
     pagecolor="#ffffff"
     bordercolor="#000000"
     borderopacity="0.25"
     inkscape:showpageshadow="2"
     inkscape:pageopacity="0.0"
     inkscape:pagecheckerboard="0"
     inkscape:deskcolor="#d1d1d1"
     showgrid="false"
     inkscape:zoom="0.838507"
     inkscape:cx="456.76423"
     inkscape:cy="466.30499"
     inkscape:window-width="1920"
     inkscape:window-height="1011"
     inkscape:window-x="0"
     inkscape:window-y="0"
     inkscape:window-maximized="1"
     inkscape:current-layer="_2" />
  <defs
     id="defs43">
    <style
       id="style41">
      .cls-1 {
        fill: #fff;
        stroke: #fff;
        stroke-miterlimit: 10;
      }
    </style>
  </defs>
  <path
     d="m 723.34282,643.41616 c -30.11067,-11.23491 -64.39611,-28.72278 -64.39611,-51.35148 v -59.38615 c 11.01138,-30.48179 27.57395,-32.66067 35.86662,-79.43876 19.30404,-6.88847 30.33818,-17.89642 44.11378,-66.04765 10.35161,-36.24677 -4.9028,-45.98369 -14.77664,-48.57112 0.20476,-1.92923 0.39814,-3.8698 0.58015,-6.16218 C 728.45037,278.1681 760.05122,117.00956 650.65404,97.751339 621.69229,75.281518 603.32102,65.102011 541.25687,68.858326 501.96625,68.84695 472.10584,77.49446 430.50602,65.635385 c -25.333,21.210152 -35.86662,64.572355 -39.16548,112.405835 -7.29163,-5.09542 -14.95865,-9.68018 -23.97934,-13.16414 -13.69597,-5.28835 -29.33714,-7.66016 -49.34646,-7.63746 -6.23372,0 -12.96795,0.22696 -20.25958,0.66955 -20.90797,0.12483 -37.65256,2.59879 -53.2141,2.53069 -10.909,0 -21.39711,-1.0327 -33.70529,-4.528 l -9.85109,-2.80306 -7.87178,6.57073 c -9.20269,7.72825 -16.14168,17.44248 -21.48812,28.05322 -7.9969,15.96719 -12.61531,34.13597 -15.50466,53.3715 -2.8666,19.23553 -3.90176,39.57185 -3.90176,59.69255 0,33.57989 2.8666,66.58103 5.46019,91.97874 -1.3878,1.08943 -2.76422,2.17888 -4.07239,3.57473 -3.36712,3.5861 -6.27922,8.1822 -8.14479,13.39111 -1.88831,5.20892 -2.78697,10.9285 -2.78697,16.9999 0,7.16083 1.20579,14.821 3.64013,23.35499 6.10858,21.14206 11.63703,35.35024 19.65668,46.69864 3.99276,5.61746 8.79318,10.37243 13.98036,13.94717 1.78594,1.25967 3.61738,2.19024 5.42606,3.17756 4.44778,17.21551 11.30715,30.25482 17.22235,39.40162 3.49225,5.44723 6.50673,9.68018 8.16754,12.50593 0.8304,1.40721 1.33092,2.42856 1.55842,2.98462 l 0.0569,0.13619 v 47.95831 l -0.35264,0.77169 c -0.58014,1.06675 -2.16132,3.09811 -4.72078,5.34509 -7.66702,6.97927 -23.52432,14.74157 -36.19651,19.08801 -21.69288,7.68286 -63.22445,22.70813 -100.342361,52.33879 -18.553269,14.83235 -36.094128,33.50046 -49.039328,56.93489 -12.9451991,23.37769 -21.06723157,51.5444 -21.04448077,84.01216 0,5.64016 0.2502586,11.40513 0.72802517,17.31765 l 1.4788014,17.6581 H 909.92205 C 922.76487,716.77218 775.66963,662.95809 723.35419,643.43885 Z M 461.59498,592.06468 c 0,22.6287 -37.02691,41.72804 -64.39611,51.35148 -48.01555,16.87506 -174.12318,63.94819 -186.3631,188.41738 H 39.499568 c 0.580145,-24.47848 6.563603,-44.63323 16.039307,-61.88279 14.879017,-27.06592 38.835599,-47.3455 63.440575,-62.14381 24.60498,-14.80965 49.36922,-23.91106 64.95351,-29.38098 12.71769,-4.51666 27.42608,-10.9512 40.3144,-19.8597 6.43847,-4.5053 12.51293,-9.62343 17.57498,-16.21685 4.98243,-6.49128 9.12307,-15.11606 9.14582,-25.28422 v -50.92024 l -0.10238,-0.98731 c -0.8759,-8.04601 -4.04964,-14.11741 -6.91624,-19.00857 -4.44778,-7.37645 -8.97518,-13.18683 -13.02482,-20.57463 -4.02689,-7.35376 -7.71252,-16.04663 -9.95348,-28.58661 l -1.95656,-11.01929 -10.55637,-3.76766 c -3.09411,-1.11215 -5.00517,-2.06541 -6.48397,-3.10946 -2.13858,-1.55473 -4.24303,-3.49531 -7.51914,-9.48726 -3.16236,-5.92386 -6.88212,-15.60404 -11.03413,-30.10729 -1.68356,-5.85578 -2.18408,-10.10007 -2.16133,-12.77829 0,-2.29238 0.32989,-3.44992 0.47777,-3.90385 l 0.0569,-0.12483 0.62565,-0.19293 16.76733,-3.76766 -1.78593,-17.05664 c -2.78698,-26.19209 -6.60911,-63.84606 -6.58636,-100.92126 -0.0228,-25.05726 1.78594,-49.81945 6.43848,-69.89476 2.3092,-10.04333 5.32368,-18.86103 8.8728,-25.91974 1.78594,-3.5407 3.67426,-6.59341 5.65358,-9.21489 11.68253,2.38316 22.60291,3.20025 32.74976,3.1889 19.65668,-0.0681 36.27613,-2.61013 54.14688,-2.55338 h 0.58014 l 0.58015,-0.034 c 6.79111,-0.40854 12.79732,-0.60147 18.17788,-0.60147 17.1996,0.0114 27.34645,1.95193 35.42298,5.05004 8.06516,3.09811 15.1634,7.88713 25.36713,15.831 l 3.01448,2.32643 8.34954,3.71092 c 0.39814,43.29412 4.69804,85.9187 7.84902,115.64013 -9.78284,2.1789 -26.61842,11.23492 -15.83455,48.85484 13.77561,48.16258 24.80974,59.17053 44.11379,66.04765 8.26991,46.77808 33.47778,61.80336 35.3206,79.43876 v 59.38615 z"
     id="path45"
     style="stroke-width:1.13618" />
  <path
     class="cls-1"
     d="m 265.84502,777.52967 c -8.33038,14.49074 -9.00883,36.52113 -12.70134,51.15623 205.06746,1.21033 410.14604,2.40957 615.21348,3.6199 -6.66208,-37.23177 -20.74253,-64.6476 -38.32641,-85.11231 C 801.93658,714.49214 763.23201,695.98174 723.00373,677.01607 671.05287,652.53169 641.45722,647.74586 630.68,619.6527 c -4.10401,-10.69318 -4.58226,-22.45234 -5.32743,-40.51858 -0.51161,-12.63638 -1.32352,-36.721 6.65095,-54.46522 0.91201,-2.04315 7.31828,-15.94539 7.31828,-15.94539 5.72783,-8.46125 11.45567,-16.92253 17.1835,-25.38379 3.14752,-5.65195 7.02909,-14.46855 8.09681,-25.76133 0.42263,-4.4305 0.32254,-8.46126 0,-11.95904 3.12528,-1.52124 7.71867,-4.04185 12.6346,-7.97268 13.12395,-10.49329 18.03988,-23.07415 25.94762,-43.83868 6.41739,-16.85591 5.58325,-20.4314 4.11514,-22.80766 -5.14948,-8.40574 -20.92049,-6.6402 -22.74449,-6.41812 7.21818,-36.32126 9.45369,-67.05719 9.97642,-89.66497 0.12235,-5.08566 0.65621,-34.01162 -5.32742,-71.06574 -4.58226,-28.4263 -9.20902,-38.10901 -15.97119,-45.82631 -13.30192,-15.2014 -31.88678,-19.36541 -41.296,-20.7312 -6.12823,-6.09611 -15.85997,-14.30198 -29.54004,-20.13159 -22.83345,-9.73823 -43.36468,-7.19541 -58.30152,-5.81851 -23.53415,2.16528 -56.95577,3.60881 -101.15459,0.48857 -4.30422,9.1053 -9.49819,21.68616 -13.66894,37.19848 -5.58324,20.74232 -7.66306,37.35392 -8.37487,58.5626 -0.46713,13.71348 -0.93425,27.42694 -1.40137,41.14041 -0.51161,14.9127 -0.0111,33.71181 2.79162,57.87416 1.65717,14.20205 4.53777,32.51258 9.89857,53.62132 -5.46089,0.48858 -16.71635,2.33184 -21.10955,10.34895 -1.21229,2.22081 -2.70265,6.38481 6.49525,31.79082 8.40823,23.1963 12.24532,26.91614 15.40397,29.15916 6.97349,4.96349 14.77002,5.69636 19.49687,5.68525 1.13444,19.34321 6.92901,31.80193 12.17859,39.71909 4.82695,7.28424 8.85311,10.1935 13.8024,19.45424 6.27281,11.74806 7.90775,22.24136 8.93097,29.18137 4.86031,33.07889 10.58814,72.0318 -4.05952,101.31311 -25.069,50.09023 -89.28743,30.92469 -168.44271,95.62782 -19.81941,16.21188 -33.67742,32.03511 -41.79648,42.09535"
     id="path47"
     style="stroke-width:1.1113" />
</svg>
