<?xml version="1.0" encoding="UTF-8" standalone="no"?>
<!-- Uploaded to: SVG Repo, www.svgrepo.com, Generator: SVG Repo Mixer Tools -->

<svg
   fill="#000000"
   width="800"
   height="800"
   viewBox="0 0 16 16"
   id="request-new-16px"
   version="1.1"
   xmlns="http://www.w3.org/2000/svg"
   xmlns:svg="http://www.w3.org/2000/svg">
  <defs
     id="defs430" />
  <path
     id="Path_46"
     data-name="Path 46"
     d="M 5,11 A 2,2 0 0 0 7,9 2,2 0 0 0 5,7 2,2 0 0 0 3,9 2,2 0 0 0 5,11 Z M 5,8 A 1,1 0 0 1 6,9 1,1 0 0 1 5,10 1,1 0 0 1 4,9 1,1 0 0 1 5,8 Z m 2.5,4 h -5 A 2.5,2.5 0 0 0 0,14.5 1.5,1.5 0 0 0 1.5,16 h 7 A 1.5,1.5 0 0 0 10,14.5 2.5,2.5 0 0 0 7.5,12 Z m 1,3 h -7 A 0.5,0.5 0 0 1 1,14.5 1.5,1.5 0 0 1 2.5,13 h 5 A 1.5,1.5 0 0 1 9,14.5 0.5,0.5 0 0 1 8.5,15 Z M 16,2.5 v 5 A 2.5,2.5 0 0 1 13.5,10 H 10.707 L 8.854,11.854 A 0.5,0.5 0 0 1 8.5,12 0.489,0.489 0 0 1 8.309,11.962 0.5,0.5 0 0 1 8,11.5 v -2 A 0.5,0.5 0 0 1 8.5,9 0.5,0.5 0 0 1 9,9.5 v 0.793 L 10.146,9.146 A 0.5,0.5 0 0 1 10.5,9 h 3 A 1.5,1.5 0 0 0 15,7.5 v -5 A 1.5,1.5 0 0 0 13.5,1 h -7 A 1.5,1.5 0 0 0 5,2.5 v 3 A 0.5,0.5 0 0 1 4.5,6 0.5,0.5 0 0 1 4,5.5 v -3 A 2.5,2.5 0 0 1 6.5,0 h 7 A 2.5,2.5 0 0 1 16,2.5 Z M 10.5,2 V 4.5 H 13 A 0.5,0.5 0 0 1 13.5,5 0.5,0.5 0 0 1 13,5.5 H 10.5 V 8 A 0.5,0.5 0 0 1 10,8.5 0.5,0.5 0 0 1 9.5,8 V 5.5 H 7 A 0.5,0.5 0 0 1 6.5,5 0.5,0.5 0 0 1 7,4.5 H 9.5 V 2 A 0.5,0.5 0 0 1 10,1.5 0.5,0.5 0 0 1 10.5,2 Z" />
  <ellipse
     style="fill:#ff0000;stroke-width:0.0274345"
     id="path1274"
     cx="2.8588552"
     cy="2.8077047"
     rx="2.8362372"
     ry="2.7642663" />
</svg>
