<?xml version="1.0" encoding="UTF-8" standalone="no"?>
<!-- Uploaded to: SVG Repo, www.svgrepo.com, Transformed by: SVG Repo Mixer Tools -->

<svg
   width="800"
   height="800"
   viewBox="0 0 512 512"
   version="1.1"
   xml:space="preserve"
   fill="#000000"
   id="svg60"
   xmlns="http://www.w3.org/2000/svg"
   xmlns:svg="http://www.w3.org/2000/svg"><defs
   id="defs64" />





<g
   id="SVGRepo_iconCarrier"
   transform="matrix(1.203394,0,0,1.2020099,-60.512028,-51.286153)"> <style
   type="text/css"
   id="style51"> .st0{fill:#8db9ba;} .st1{fill:none;stroke:#8db9ba;stroke-width:32;stroke-linecap:round;stroke-linejoin:round;stroke-miterlimit:10;} </style> <g
   id="Layer_1" /> <g
   id="Layer_2"> <g
   id="g56"> <path
   class="st0"
   d="m 263.24,43.5 c -117.36,0 -212.5,95.14 -212.5,212.5 0,117.36 95.14,212.5 212.5,212.5 117.36,0 212.5,-95.14 212.5,-212.5 0,-117.36 -95.14,-212.5 -212.5,-212.5 z m 104.59,254.86 c 17.18,17.18 17.18,45.04 0,62.23 v 0 c -17.18,17.18 -45.04,17.18 -62.23,0 l -42.36,-42.36 -42.36,42.36 c -17.18,17.18 -45.04,17.18 -62.23,0 v 0 c -17.18,-17.18 -17.18,-45.04 0,-62.23 L 201.01,256 158.65,213.64 c -17.18,-17.18 -17.18,-45.04 0,-62.23 v 0 c 17.18,-17.18 45.04,-17.18 62.23,0 l 42.36,42.36 42.36,-42.36 c 17.18,-17.18 45.04,-17.18 62.23,0 v 0 c 17.18,17.18 17.18,45.04 0,62.23 L 325.46,256 Z"
   id="path54" /> </g> </g> </g>

</svg>
