<?xml version="1.0" encoding="UTF-8" standalone="no"?>
<!-- Generator: Adobe Illustrator 18.1.1, SVG Export Plug-In . SVG Version: 6.00 Build 0)  -->

<svg
   viewBox="0 0 50 50"
   width="50px"
   height="50px"
   version="1.1"
   id="svg3"
   sodipodi:docname="feed-filled.svg"
   inkscape:version="1.3-alpha (1:1.2.0-alpha1+devel+202305212220+fe3a0dccba)"
   xmlns:inkscape="http://www.inkscape.org/namespaces/inkscape"
   xmlns:sodipodi="http://sodipodi.sourceforge.net/DTD/sodipodi-0.dtd"
   xmlns="http://www.w3.org/2000/svg"
   xmlns:svg="http://www.w3.org/2000/svg">
  <defs
     id="defs3" />
  <sodipodi:namedview
     id="namedview3"
     pagecolor="#ffffff"
     bordercolor="#999999"
     borderopacity="1"
     inkscape:showpageshadow="0"
     inkscape:pageopacity="0"
     inkscape:pagecheckerboard="0"
     inkscape:deskcolor="#d1d1d1"
     inkscape:zoom="14.799999"
     inkscape:cx="26.41892"
     inkscape:cy="23.547298"
     inkscape:window-width="1920"
     inkscape:window-height="1016"
     inkscape:window-x="0"
     inkscape:window-y="0"
     inkscape:window-maximized="1"
     inkscape:current-layer="g6" />
  <g
     id="g6"
     style="stroke-width:3;stroke-dasharray:none;fill:#000000"
     transform="matrix(0.98039253,0,0,0.98039253,0.49018679,0.47057932)">
    <path
       id="path4"
       style="stroke-width:3;stroke-dasharray:none;fill:#000000;stroke:none"
       d="M 26.163437 7.0823501 C 22.62035 7.2437302 20.294533 8.6157586 19.05133 10.500943 C 17.729792 12.504916 17.558258 15.123687 18.634963 17.591135 A 1.0201016 1.0201016 0 0 1 18.266409 18.850197 C 18.31429 18.818277 17.953965 19.052363 18.017385 19.802462 C 18.189651 21.510517 18.710775 21.481896 18.800315 21.499806 A 1.0201016 1.0201016 0 0 1 19.615119 22.392305 C 19.697177 23.171848 20.009563 24.115528 20.374142 24.844687 C 20.556432 25.209267 20.751473 25.522597 20.912033 25.73121 C 21.072596 25.939822 21.244188 26.023544 21.101291 25.962304 A 1.0201016 1.0201016 0 0 1 21.720861 26.900624 C 21.720861 28.200621 21.719973 29.335565 21.617267 30.773435 A 1.0201016 1.0201016 0 0 1 21.553517 31.062302 C 21.014384 32.477527 19.784132 33.330479 18.463635 33.98484 C 17.143138 34.639201 15.648846 35.139037 14.244184 35.747925 C 12.83952 36.356814 11.542809 37.06763 10.602466 38.034956 C 9.8785924 38.779601 9.4237572 39.766616 9.1621154 40.9814 L 40.837885 40.9814 C 40.576243 39.766616 40.121408 38.779601 39.397534 38.034956 C 38.45719 37.06763 37.16048 36.356814 35.755816 35.747925 C 34.351154 35.139037 32.856862 34.639201 31.536365 33.98484 C 30.215868 33.330479 28.985615 32.477527 28.446483 31.062302 A 1.0201016 1.0201016 0 0 1 28.382733 30.767458 C 28.280718 29.23744 28.279139 28.200621 28.279139 26.900624 A 1.0201016 1.0201016 0 0 1 28.898709 25.962304 C 28.728873 26.035091 28.897443 25.958431 29.050116 25.745156 C 29.202788 25.53188 29.389315 25.208181 29.562108 24.834726 C 29.907692 24.087818 30.204664 23.12973 30.287264 22.386329 A 1.0201016 1.0201016 0 0 1 31.301287 21.479884 C 31.143284 21.479884 31.19778 21.553477 31.35906 21.338438 C 31.517547 21.127123 31.747264 20.629219 31.881013 19.774572 C 31.908997 19.391444 31.854753 19.102709 31.799333 18.971721 C 31.741619 18.835308 31.687064 18.92323 31.952732 18.98965 A 1.0201016 1.0201016 0 0 1 31.40488 17.364026 C 31.58277 17.141663 31.878241 16.388486 31.970661 15.461488 C 32.063085 14.534489 31.996206 13.427517 31.725622 12.41145 C 31.45504 11.395384 30.985915 10.480356 30.327107 9.8475053 C 29.6683 9.2146547 28.83853 8.819537 27.599804 8.819537 A 1.0201016 1.0201016 0 0 1 26.66746 8.2139122 L 26.163437 7.0823501 z M 15.399652 11.000981 C 8.999665 11.000981 6.6007132 16.000517 8.5007094 20.300509 C 8.3007098 20.400509 7.9006707 20.900628 8.0006705 21.800626 C 8.2006701 23.400622 8.7999677 23.800781 9.1999669 23.800781 C 9.3999665 25.300779 10.299693 26.999063 10.799693 27.299061 C 10.799693 28.299059 10.800082 29.099298 10.700084 30.299294 C 9.5000854 33.599288 1.4001255 32.700789 1.0001263 39.100775 L 7.5185613 39.100775 C 7.9174893 38.127842 8.4728562 37.296979 9.1382091 36.612534 C 10.375986 35.339239 11.92354 34.530871 13.431372 33.877262 C 14.939202 33.223652 16.42656 32.717274 17.559182 32.156012 C 18.645553 31.617671 19.30298 31.063088 19.587229 30.414841 C 19.659659 29.301682 19.669969 28.346557 19.6709 27.295077 C 19.564399 27.180525 19.395839 27.103577 19.296369 26.974335 C 19.028809 26.626701 18.781501 26.215536 18.551291 25.755116 C 18.156266 24.965065 17.885757 24.010979 17.722542 23.055703 C 16.951173 22.596664 16.160898 21.757114 15.985355 20.001681 A 1.0201016 1.0201016 0 0 1 15.985355 19.99172 C 15.89612 19.010134 16.198988 18.337607 16.583011 17.81426 C 15.925442 16.028286 15.75601 14.152764 16.108871 12.399497 L 16.100902 12.399497 L 15.399652 11.000981 z M 37.39937 11.000981 C 36.117827 11.000981 34.774588 11.131959 33.570387 11.491059 C 33.611767 11.623492 33.662396 11.75423 33.697887 11.887505 C 34.039803 13.171433 34.117651 14.491694 34.0007 15.664691 C 33.920788 16.466195 33.717898 17.157352 33.432926 17.788362 C 33.515038 17.918286 33.618825 18.037062 33.677965 18.176838 C 33.895247 18.690422 33.977906 19.300175 33.915036 19.99172 A 1.0201016 1.0201016 0 0 1 33.909059 20.051486 C 33.741549 21.168222 33.429381 21.976683 32.990661 22.561641 C 32.78474 22.836203 32.462737 22.847348 32.197771 23.011875 C 32.044636 23.937007 31.788648 24.883464 31.414841 25.691367 C 31.200134 26.155411 30.966309 26.575892 30.709607 26.934491 C 30.613114 27.069287 30.434991 27.151796 30.329099 27.273163 C 30.329879 28.317323 30.339721 29.225582 30.412771 30.414841 C 30.69702 31.063088 31.354447 31.617671 32.440817 32.156012 C 33.57344 32.717274 35.060798 33.223652 36.568628 33.877262 C 38.07646 34.530871 39.624014 35.339239 40.861791 36.612534 C 41.504451 37.273635 42.04759 38.069149 42.443587 38.999174 L 48.999874 38.999174 C 48.599874 32.599186 40.599524 33.499679 39.399526 30.199685 C 39.299526 29.099687 39.299916 28.29945 39.299916 27.199452 C 39.799916 26.899452 40.700033 25.200779 40.800033 23.800781 C 41.200033 23.800781 41.799331 23.400622 41.999329 21.800626 C 42.099329 21.000628 41.799289 20.400509 41.499291 20.300509 C 42.699287 18.700513 42.49901 12.399497 37.999018 12.399497 L 37.39937 11.000981 z " />
  </g>
</svg>
