<?xml version="1.0" encoding="UTF-8" standalone="no"?>
<!-- Generator: Adobe Illustrator 18.1.1, SVG Export Plug-In . SVG Version: 6.00 Build 0)  -->

<svg
   viewBox="0 0 50 50"
   width="50px"
   height="50px"
   version="1.1"
   id="svg3"
   sodipodi:docname="feed.svg"
   inkscape:version="1.3-alpha (1:1.2.0-alpha1+devel+202305212220+fe3a0dccba)"
   xmlns:inkscape="http://www.inkscape.org/namespaces/inkscape"
   xmlns:sodipodi="http://sodipodi.sourceforge.net/DTD/sodipodi-0.dtd"
   xmlns="http://www.w3.org/2000/svg"
   xmlns:svg="http://www.w3.org/2000/svg">
  <defs
     id="defs3" />
  <sodipodi:namedview
     id="namedview3"
     pagecolor="#ffffff"
     bordercolor="#999999"
     borderopacity="1"
     inkscape:showpageshadow="0"
     inkscape:pageopacity="0"
     inkscape:pagecheckerboard="0"
     inkscape:deskcolor="#d1d1d1"
     inkscape:zoom="10.46518"
     inkscape:cx="12.517701"
     inkscape:cy="30.625368"
     inkscape:window-width="1920"
     inkscape:window-height="1016"
     inkscape:window-x="0"
     inkscape:window-y="0"
     inkscape:window-maximized="1"
     inkscape:current-layer="svg3" />
  <g
     id="g3"
     style="stroke-width:3;stroke-dasharray:none"
     transform="matrix(0.98039253,0,0,0.98039253,0.49018679,0.47057932)">
    <path
       fill="none"
       stroke="#000000"
       stroke-width="2"
       stroke-linecap="round"
       stroke-linejoin="round"
       stroke-miterlimit="10"
       d="m 29.4,30.7 c -0.1,-1.5 -0.1,-2.5 -0.1,-3.8 0.7,-0.3 1.8,-2.6 2,-4.4 0.5,0 1.3,-0.6 1.6,-2.6 C 33,18.8 32.6,18.1 32.2,18 33.8,16 33.5,7.8 27.6,7.8 L 26.8,6 c -8.4,0 -11.5,6.5 -9.1,12 -0.3,0.2 -0.8,0.8 -0.7,1.9 0.2,2 1.1,2.5 1.6,2.6 0.2,1.9 1.4,4.1 2.1,4.4 0,1.3 0,2.4 -0.1,3.8 C 19,34.9 8.4,33.7 7.9,42 H 42.1 C 41.6,33.7 31,34.9 29.4,30.7 Z"
       id="path1"
       style="stroke-width:3;stroke-dasharray:none" />
    <path
       fill="none"
       stroke="#000000"
       stroke-width="2"
       stroke-linecap="round"
       stroke-linejoin="round"
       stroke-miterlimit="10"
       d="m 17.1,12.5 c -0.3,-0.1 -0.7,-0.1 -1,-0.1 L 15.4,11 C 9,11 6.6,16 8.5,20.3 8.3,20.4 7.9,20.9 8,21.8 c 0.2,1.6 0.8,2 1.2,2 0.2,1.5 1.1,3.2 1.6,3.5 0,1 0,1.8 -0.1,3 -1.2,3.3 -9.3,2.4 -9.7,8.8 h 7"
       id="path2"
       style="display:inline;stroke-width:3;stroke-dasharray:none" />
    <path
       fill="none"
       stroke="#000000"
       stroke-width="2"
       stroke-linecap="round"
       stroke-linejoin="round"
       stroke-miterlimit="10"
       d="m 42,39 h 7 c -0.4,-6.4 -8.4,-5.5 -9.6,-8.8 -0.1,-1.1 -0.1,-1.9 -0.1,-3 0.5,-0.3 1.4,-2 1.5,-3.4 0.4,0 1,-0.4 1.2,-2 0.1,-0.8 -0.2,-1.4 -0.5,-1.5 1.2,-1.6 1,-7.9 -3.5,-7.9 L 37.4,11 c -1.6,0 -3.3,0.2 -4.7,0.8"
       id="path3"
       style="stroke-width:3;stroke-dasharray:none" />
  </g>
</svg>
