<?xml version="1.0" encoding="UTF-8" standalone="no"?>
<!-- Generator: Adobe Illustrator 22.0.1, SVG Export Plug-In . SVG Version: 6.00 Build 0)  -->

<svg
   version="1.1"
   id="Layer_1"
   x="0px"
   y="0px"
   viewBox="0 0 128 128"
   style="enable-background:new 0 0 128 128;"
   xml:space="preserve"
   sodipodi:docname="foods.svg"
   inkscape:version="1.3-alpha (1:1.2.0-alpha1+devel+202305212220+fe3a0dccba)"
   xmlns:inkscape="http://www.inkscape.org/namespaces/inkscape"
   xmlns:sodipodi="http://sodipodi.sourceforge.net/DTD/sodipodi-0.dtd"
   xmlns="http://www.w3.org/2000/svg"
   xmlns:svg="http://www.w3.org/2000/svg"><defs
   id="defs7" /><sodipodi:namedview
   id="namedview7"
   pagecolor="#ffffff"
   bordercolor="#999999"
   borderopacity="1"
   inkscape:showpageshadow="0"
   inkscape:pageopacity="0"
   inkscape:pagecheckerboard="0"
   inkscape:deskcolor="#d1d1d1"
   inkscape:zoom="5.78125"
   inkscape:cx="72.12973"
   inkscape:cy="58.897297"
   inkscape:window-width="1920"
   inkscape:window-height="1016"
   inkscape:window-x="0"
   inkscape:window-y="0"
   inkscape:window-maximized="1"
   inkscape:current-layer="Layer_1" />&#10;<g
   id="g7"
   style="stroke:#000000;stroke-opacity:1">&#10;	<path
   d="M42,92h4c1.7,0,3-1.3,3-3s-1.3-3-3-3h-4c-1.7,0-3,1.3-3,3S40.3,92,42,92z"
   id="path1"
   style="stroke:#000000;stroke-opacity:1" />&#10;	<path
   d="M61.8,92h24c1.7,0,3-1.3,3-3s-1.3-3-3-3h-24c-1.7,0-3,1.3-3,3S60.1,92,61.8,92z"
   id="path2"
   style="stroke:#000000;stroke-opacity:1" />&#10;	<path
   d="M42,77h4c1.7,0,3-1.3,3-3s-1.3-3-3-3h-4c-1.7,0-3,1.3-3,3S40.3,77,42,77z"
   id="path3"
   style="stroke:#000000;stroke-opacity:1" />&#10;	<path
   d="M61.8,77h24c1.7,0,3-1.3,3-3s-1.3-3-3-3h-24c-1.7,0-3,1.3-3,3S60.1,77,61.8,77z"
   id="path4"
   style="stroke:#000000;stroke-opacity:1" />&#10;	<path
   d="M42,62h4c1.7,0,3-1.3,3-3s-1.3-3-3-3h-4c-1.7,0-3,1.3-3,3S40.3,62,42,62z"
   id="path5"
   style="stroke:#000000;stroke-opacity:1" />&#10;	<path
   d="M61.8,62h24c1.7,0,3-1.3,3-3s-1.3-3-3-3h-24c-1.7,0-3,1.3-3,3S60.1,62,61.8,62z"
   id="path6"
   style="stroke:#000000;stroke-opacity:1" />&#10;	<path
   d="M32,122h64c7.2,0,13-5.8,13-13V29c0-6.1-2.4-11.9-6.7-16.3S92.1,6,86,6L32,6c-7.2,0-13,5.8-13,13v90   C19,116.2,24.8,122,32,122z M98,17c2.5,2.5,4.1,5.6,4.7,9H96c-3.9,0-7-3.1-7-7l0-6.7C92.4,12.9,95.5,14.5,98,17z M25,19   c0-3.9,3.1-7,7-7l51,0l0,7c0,7.2,5.8,13,13,13h7v77c0,3.9-3.1,7-7,7H32c-3.9,0-7-3.1-7-7V19z"
   id="path7"
   style="stroke:#000000;stroke-opacity:1;stroke-width:2.1;stroke-dasharray:none" />&#10;</g>&#10;</svg>
