<?xml version="1.0" encoding="UTF-8" standalone="no"?>
<!-- Generator: Adobe Illustrator 22.0.1, SVG Export Plug-In . SVG Version: 6.00 Build 0)  -->

<svg
   version="1.1"
   id="Layer_1"
   x="0px"
   y="0px"
   viewBox="0 0 128 128"
   style="enable-background:new 0 0 128 128;"
   xml:space="preserve"
   sodipodi:docname="foods-filled.svg"
   inkscape:version="1.3-alpha (1:1.2.0-alpha1+devel+202305212220+fe3a0dccba)"
   xmlns:inkscape="http://www.inkscape.org/namespaces/inkscape"
   xmlns:sodipodi="http://sodipodi.sourceforge.net/DTD/sodipodi-0.dtd"
   xmlns="http://www.w3.org/2000/svg"
   xmlns:svg="http://www.w3.org/2000/svg"><defs
   id="defs7" /><sodipodi:namedview
   id="namedview7"
   pagecolor="#ffffff"
   bordercolor="#999999"
   borderopacity="1"
   inkscape:showpageshadow="0"
   inkscape:pageopacity="0"
   inkscape:pagecheckerboard="0"
   inkscape:deskcolor="#d1d1d1"
   inkscape:zoom="5.78125"
   inkscape:cx="17.47027"
   inkscape:cy="72.389189"
   inkscape:window-width="1920"
   inkscape:window-height="1016"
   inkscape:window-x="0"
   inkscape:window-y="0"
   inkscape:window-maximized="1"
   inkscape:current-layer="g7" />&#10;<g
   id="g7"
   style="stroke:#000000;stroke-opacity:1">&#10;	&#10;	&#10;	&#10;	&#10;	&#10;	<g
   id="g1" /><path
   id="path1"
   style="enable-background:new 0 0 128 128;stroke:none;stroke-opacity:1"
   d="M 32 6 C 24.800014 6 19 11.800014 19 19 L 19 109 C 19 116.19998 24.800014 122 32 122 L 96 122 C 103.19998 122 109 116.19998 109 109 L 109 29 L 86 29 L 86 6 L 32 6 z M 42 56 L 46 56 C 47.699998 56 49 57.300002 49 59 C 49 60.699998 47.699998 62 46 62 L 42 62 C 40.300002 62 39 60.699998 39 59 C 39 57.300002 40.300002 56 42 56 z M 61.800781 56 L 85.800781 56 C 87.500779 56 88.800781 57.300004 88.800781 59 C 88.800781 60.699996 87.500779 62 85.800781 62 L 61.800781 62 C 60.100785 62 58.800781 60.699996 58.800781 59 C 58.800781 57.300004 60.100785 56 61.800781 56 z M 42 71 L 46 71 C 47.699998 71 49 72.300002 49 74 C 49 75.699998 47.699998 77 46 77 L 42 77 C 40.300002 77 39 75.699998 39 74 C 39 72.300002 40.300002 71 42 71 z M 61.800781 71 L 85.800781 71 C 87.50078 71 88.800781 72.300002 88.800781 74 C 88.800781 75.699998 87.50078 77 85.800781 77 L 61.800781 77 C 60.100783 77 58.800781 75.699998 58.800781 74 C 58.800781 72.300002 60.100783 71 61.800781 71 z M 42 86 L 46 86 C 47.699998 86 49 87.300002 49 89 C 49 90.699998 47.699998 92 46 92 L 42 92 C 40.300002 92 39 90.699998 39 89 C 39 87.300002 40.300002 86 42 86 z M 61.800781 86 L 85.800781 86 C 87.50078 86 88.800781 87.300002 88.800781 89 C 88.800781 90.699998 87.50078 92 85.800781 92 L 61.800781 92 C 60.100783 92 58.800781 90.699998 58.800781 89 C 58.800781 87.300002 60.100783 86 61.800781 86 z " />&#10;	<path
   d="m 32,122 h 64 c 7.2,0 13,-5.8 13,-13 V 29 C 109,22.9 106.6,17.1 102.3,12.7 98,8.3 92.1,6 86,6 H 32 C 24.8,6 19,11.8 19,19 v 90 c 0,7.2 5.8,13 13,13 z M 98,17 c 2.5,2.5 4.1,5.6 4.7,9 H 96 c -3.9,0 -7,-3.1 -7,-7 v -6.7 c 3.4,0.6 6.5,2.2 9,4.7 z m -73,2 c 0,-3.9 3.1,-7 7,-7 h 51 v 7 c 0,7.2 5.8,13 13,13 h 7 v 77 c 0,3.9 -3.1,7 -7,7 H 32 c -3.9,0 -7,-3.1 -7,-7 z m 70.402083,9.651202"
   id="path7"
   style="display:inline;stroke:#000000;stroke-width:2.1;stroke-dasharray:none;stroke-opacity:1"
   sodipodi:nodetypes="ssssssssssscsscssscsscsssss" />&#10;</g>&#10;</svg>
