<?xml version="1.0" encoding="UTF-8" standalone="no"?>
<!-- Generator: Adobe Illustrator 22.1.0, SVG Export Plug-In . SVG Version: 6.00 Build 0)  -->

<svg
   version="1.1"
   id="Layer_1"
   x="0px"
   y="0px"
   viewBox="0 0 48 48"
   style="enable-background:new 0 0 48 48;"
   xml:space="preserve"
   sodipodi:docname="home-filled.svg"
   inkscape:version="1.3-alpha (1:1.2.0-alpha1+devel+202305212220+fe3a0dccba)"
   xmlns:inkscape="http://www.inkscape.org/namespaces/inkscape"
   xmlns:sodipodi="http://sodipodi.sourceforge.net/DTD/sodipodi-0.dtd"
   xmlns="http://www.w3.org/2000/svg"
   xmlns:svg="http://www.w3.org/2000/svg"><defs
   id="defs1" /><sodipodi:namedview
   id="namedview1"
   pagecolor="#ffffff"
   bordercolor="#999999"
   borderopacity="1"
   inkscape:showpageshadow="0"
   inkscape:pageopacity="0"
   inkscape:pagecheckerboard="0"
   inkscape:deskcolor="#d1d1d1"
   inkscape:zoom="15.416667"
   inkscape:cx="23.999999"
   inkscape:cy="23.967567"
   inkscape:window-width="1920"
   inkscape:window-height="1016"
   inkscape:window-x="0"
   inkscape:window-y="0"
   inkscape:window-maximized="1"
   inkscape:current-layer="Layer_1" />&#10;<path
   style="fill:#000000;stroke:#000000;stroke-width:3.5;stroke-linejoin:round;stroke-miterlimit:10;stroke-dasharray:none;fill-opacity:1"
   d="M 6.9381156,43.313799 H 17.945783 c 0.607623,0 1.100767,-0.493143 1.100767,-1.100767 V 31.205365 c 0,-1.216347 0.985186,-2.201533 2.201533,-2.201533 h 5.503834 c 1.216347,0 2.201533,0.985186 2.201533,2.201533 v 11.007667 c 0,0.607624 0.493144,1.100767 1.100767,1.100767 h 11.007667 c 0.607624,0 1.100767,-0.493143 1.100767,-1.100767 V 21.200496 c 0,-2.023209 -0.927946,-3.935241 -2.517453,-5.187913 L 24,3.6861967 8.3548024,16.012583 c -1.5895072,1.252672 -2.5174536,3.164704 -2.5174536,5.187913 v 21.012536 c 0,0.607624 0.4931435,1.100767 1.1007668,1.100767 z"
   id="path1" />&#10;</svg>
