<?xml version="1.0" encoding="UTF-8" standalone="no"?>
<!-- Generator: Adobe Illustrator 21.1.0, SVG Export Plug-In . SVG Version: 6.00 Build 0)  -->

<svg
   viewBox="0 0 50 50"
   width="50px"
   height="50px"
   version="1.1"
   id="svg1"
   sodipodi:docname="profile.svg"
   inkscape:version="1.3-alpha (1:1.2.0-alpha1+devel+202305212220+fe3a0dccba)"
   xmlns:inkscape="http://www.inkscape.org/namespaces/inkscape"
   xmlns:sodipodi="http://sodipodi.sourceforge.net/DTD/sodipodi-0.dtd"
   xmlns="http://www.w3.org/2000/svg"
   xmlns:svg="http://www.w3.org/2000/svg">
  <defs
     id="defs1" />
  <sodipodi:namedview
     id="namedview1"
     pagecolor="#ffffff"
     bordercolor="#999999"
     borderopacity="1"
     inkscape:showpageshadow="0"
     inkscape:pageopacity="0"
     inkscape:pagecheckerboard="0"
     inkscape:deskcolor="#d1d1d1"
     inkscape:zoom="14.8"
     inkscape:cx="22.094595"
     inkscape:cy="24.966216"
     inkscape:window-width="1920"
     inkscape:window-height="1016"
     inkscape:window-x="0"
     inkscape:window-y="0"
     inkscape:window-maximized="1"
     inkscape:current-layer="layer1" />
  <g
     inkscape:groupmode="layer"
     id="layer1"
     inkscape:label="Layer 1">
    <path
       style="fill:none;stroke:#000000;stroke-width:3.19149;stroke-linecap:round;stroke-linejoin:round;stroke-miterlimit:10;stroke-dasharray:none"
       d="m 40.957447,42.021277 c -3.608511,-3.218086 -10.434043,-3.067022 -11.702128,-6.382979 0,-0.292553 0,0 0,-1.112766 4.193617,-0.390426 7.446809,-1.560638 7.446809,-2.730851 C 33.581915,28.967021 39.725532,8.6829787 28.705319,9.0734043 28.02234,8.4882979 26.755319,8.0010638 25.096809,8.0010638 10.17766,9.0734043 16.710638,28.869149 13.297872,31.892553 c 0,1.560638 3.351064,2.145745 7.446809,2.632979 0,0.292553 0,0.585106 -0.09787,1.170213 -1.267022,3.315957 -7.995745,3.107446 -11.6042558,6.325532"
       id="path1" />
    <circle
       style="display:inline;fill:none;stroke:#000000;stroke-width:3.19149;stroke-linecap:round;stroke-miterlimit:10;stroke-dasharray:none"
       cx="25"
       cy="25"
       r="23.404255"
       id="circle1" />
  </g>
</svg>
